<mxfile host="Electron" modified="2024-09-04T12:51:12.361Z" agent="Mozilla/5.0 (Windows NT 10.0; Win64; x64) AppleWebKit/537.36 (KHTML, like Gecko) draw.io/21.2.8 Chrome/112.0.5615.165 Electron/24.2.0 Safari/537.36" etag="F-f2esikBpgz6p7lG6vp" version="21.2.8" type="device">
  <diagram name="第 1 页" id="Pwoi8b4oFiyhX782Uqtp">
    <mxGraphModel dx="628" dy="367" grid="0" gridSize="10" guides="1" tooltips="1" connect="1" arrows="1" fold="1" page="1" pageScale="1" pageWidth="5300" pageHeight="6000" math="0" shadow="0">
      <root>
        <mxCell id="0" />
        <mxCell id="1" parent="0" />
        <mxCell id="eU7qqHYA3062BNWfoqlt-1" value="&lt;b style=&quot;font-size: 11px;&quot;&gt;&lt;font style=&quot;font-size: 11px;&quot;&gt;&lt;br&gt;&amp;nbsp; &amp;nbsp; &amp;nbsp; &amp;nbsp;&lt;br&gt;&lt;br&gt;&amp;nbsp; &amp;nbsp;SECTION&amp;nbsp; &amp;nbsp;header&amp;nbsp; &amp;nbsp;vstart=0&lt;br&gt;&lt;br&gt;&amp;nbsp; &amp;nbsp; &amp;nbsp; &amp;nbsp; &amp;nbsp; &amp;nbsp; &amp;nbsp; &amp;nbsp; &amp;nbsp; &amp;nbsp; &amp;nbsp;&lt;br&gt;&lt;br&gt;&amp;nbsp; &amp;nbsp;SECTION&amp;nbsp; &amp;nbsp;code&amp;nbsp; align=16&amp;nbsp; vstart=0&amp;nbsp;&amp;nbsp;&lt;br&gt;&lt;br&gt;&amp;nbsp; &amp;nbsp;  &lt;br&gt; &amp;nbsp; &amp;nbsp; &amp;nbsp; &amp;nbsp; &amp;nbsp; &amp;nbsp;putch: mov ax, string&lt;br&gt;&amp;nbsp; &amp;nbsp; &amp;nbsp; &amp;nbsp; &amp;nbsp; &amp;nbsp; &amp;nbsp; &amp;nbsp; &amp;nbsp; &amp;nbsp; &amp;nbsp; mov dh, 0x07&lt;br&gt;&lt;br&gt;&amp;nbsp; &amp;nbsp; SECTION&amp;nbsp; &amp;nbsp;data&amp;nbsp; &amp;nbsp;align=16&amp;nbsp; vstart=0&lt;br&gt;&lt;br&gt;&lt;br&gt;&lt;br&gt;&amp;nbsp; &amp;nbsp; SECTION&amp;nbsp; &amp;nbsp;extra&amp;nbsp; &amp;nbsp;align=16&amp;nbsp; vstart=0&lt;br style=&quot;border-color: var(--border-color);&quot;&gt; &lt;br&gt; &amp;nbsp; &amp;nbsp;&lt;br&gt;&lt;br&gt;&lt;/font&gt;&lt;/b&gt;&lt;span style=&quot;white-space: pre; font-size: 11px;&quot;&gt;&lt;b&gt;&lt;font style=&quot;font-size: 11px;&quot;&gt;&lt;br&gt;    SECTION    stack   align=16  vstart=0&lt;br&gt; &lt;br&gt;&lt;br&gt;&lt;br&gt;    SECTION    trail    align=16&lt;br&gt;    program_end:&lt;/font&gt;&lt;/b&gt;&lt;br&gt;&lt;/span&gt;" style="shape=note2;boundedLbl=1;whiteSpace=wrap;html=1;size=46;verticalAlign=top;align=left;fillColor=#fff2cc;strokeColor=#d6b656;" parent="1" vertex="1">
          <mxGeometry x="238" y="171" width="231" height="480" as="geometry" />
        </mxCell>
        <mxCell id="eU7qqHYA3062BNWfoqlt-5" value="&lt;b&gt;&lt;font style=&quot;font-size: 9px;&quot;&gt;section.header.start&lt;/font&gt;&lt;/b&gt;" style="text;html=1;align=center;verticalAlign=middle;resizable=0;points=[];autosize=1;strokeColor=none;fillColor=none;" parent="1" vertex="1">
          <mxGeometry x="482" y="212" width="103" height="26" as="geometry" />
        </mxCell>
        <mxCell id="eU7qqHYA3062BNWfoqlt-8" value="&lt;b&gt;&lt;font style=&quot;font-size: 9px;&quot;&gt;section.code.start&lt;/font&gt;&lt;/b&gt;" style="text;html=1;align=center;verticalAlign=middle;resizable=0;points=[];autosize=1;strokeColor=none;fillColor=none;" parent="1" vertex="1">
          <mxGeometry x="592" y="240" width="95" height="26" as="geometry" />
        </mxCell>
        <mxCell id="eU7qqHYA3062BNWfoqlt-10" value="" style="shape=curlyBracket;whiteSpace=wrap;html=1;rounded=1;flipH=1;labelPosition=right;verticalLabelPosition=middle;align=left;verticalAlign=middle;" parent="1" vertex="1">
          <mxGeometry x="469" y="175" width="20" height="102" as="geometry" />
        </mxCell>
        <mxCell id="eU7qqHYA3062BNWfoqlt-11" value="" style="shape=curlyBracket;whiteSpace=wrap;html=1;rounded=1;flipH=1;labelPosition=right;verticalLabelPosition=middle;align=left;verticalAlign=middle;" parent="1" vertex="1">
          <mxGeometry x="578" y="171" width="20" height="163" as="geometry" />
        </mxCell>
        <mxCell id="eU7qqHYA3062BNWfoqlt-13" value="" style="shape=curlyBracket;whiteSpace=wrap;html=1;rounded=1;flipH=1;labelPosition=right;verticalLabelPosition=middle;align=left;verticalAlign=middle;" parent="1" vertex="1">
          <mxGeometry x="473" y="331" width="20" height="50" as="geometry" />
        </mxCell>
        <mxCell id="eU7qqHYA3062BNWfoqlt-14" value="&lt;b&gt;&lt;font style=&quot;font-size: 9px;&quot;&gt;putch&lt;/font&gt;&lt;/b&gt;" style="text;html=1;align=center;verticalAlign=middle;resizable=0;points=[];autosize=1;strokeColor=none;fillColor=none;" parent="1" vertex="1">
          <mxGeometry x="489" y="343" width="43" height="26" as="geometry" />
        </mxCell>
        <mxCell id="eU7qqHYA3062BNWfoqlt-15" value="" style="shape=curlyBracket;whiteSpace=wrap;html=1;rounded=1;flipH=1;labelPosition=right;verticalLabelPosition=middle;align=left;verticalAlign=middle;" parent="1" vertex="1">
          <mxGeometry x="682" y="171" width="20" height="468" as="geometry" />
        </mxCell>
        <mxCell id="eU7qqHYA3062BNWfoqlt-17" value="&lt;font style=&quot;font-size: 9px;&quot;&gt;&lt;b&gt;program_end&lt;/b&gt;&lt;/font&gt;" style="text;html=1;align=center;verticalAlign=middle;resizable=0;points=[];autosize=1;strokeColor=none;fillColor=none;" parent="1" vertex="1">
          <mxGeometry x="695" y="393.5" width="76" height="26" as="geometry" />
        </mxCell>
        <mxCell id="n-hH0kZuh-ACeAebBSYg-1" value="&lt;b&gt;&amp;nbsp; &amp;nbsp; 程序的总长度&lt;br&gt;&amp;nbsp; &amp;nbsp; 入口点&lt;br&gt;&amp;nbsp; &amp;nbsp; 段重定位表项数&lt;br&gt;&amp;nbsp; &amp;nbsp; 段重定位表&lt;/b&gt;" style="rounded=0;whiteSpace=wrap;html=1;align=left;" parent="1" vertex="1">
          <mxGeometry x="342" y="1171" width="186" height="96" as="geometry" />
        </mxCell>
        <mxCell id="n-hH0kZuh-ACeAebBSYg-2" value="&lt;b&gt;&lt;font style=&quot;font-size: 14px;&quot;&gt;用户程序&lt;br&gt;（包括上面的头部）&lt;/font&gt;&lt;/b&gt;" style="rounded=0;whiteSpace=wrap;html=1;fillColor=#ffe6cc;strokeColor=#d79b00;" parent="1" vertex="1">
          <mxGeometry x="342" y="1267" width="186" height="244" as="geometry" />
        </mxCell>
        <mxCell id="n-hH0kZuh-ACeAebBSYg-3" value="" style="shape=curlyBracket;whiteSpace=wrap;html=1;rounded=1;labelPosition=left;verticalLabelPosition=middle;align=right;verticalAlign=middle;" parent="1" vertex="1">
          <mxGeometry x="307" y="1171" width="20" height="96" as="geometry" />
        </mxCell>
        <mxCell id="n-hH0kZuh-ACeAebBSYg-4" value="&lt;b&gt;&lt;font face=&quot;Lucida Console&quot;&gt;用户程序头部，&lt;br&gt;这是双方都知道的&lt;br&gt;协议部分&lt;/font&gt;&lt;/b&gt;" style="text;html=1;align=center;verticalAlign=middle;resizable=0;points=[];autosize=1;strokeColor=none;fillColor=none;" parent="1" vertex="1">
          <mxGeometry x="189" y="1190.5" width="114" height="58" as="geometry" />
        </mxCell>
        <mxCell id="n-hH0kZuh-ACeAebBSYg-5" value="&lt;b&gt;&lt;font style=&quot;font-size: 13px;&quot;&gt;ROM BIOS&lt;/font&gt;&lt;/b&gt;" style="rounded=0;whiteSpace=wrap;html=1;fillColor=#ffe6cc;strokeColor=#d79b00;" parent="1" vertex="1">
          <mxGeometry x="963" y="1171" width="172" height="113" as="geometry" />
        </mxCell>
        <mxCell id="n-hH0kZuh-ACeAebBSYg-6" value="&lt;b&gt;&lt;font style=&quot;font-size: 14px;&quot;&gt;.......&lt;/font&gt;&lt;/b&gt;" style="rounded=0;whiteSpace=wrap;html=1;" parent="1" vertex="1">
          <mxGeometry x="963" y="1284" width="172" height="252" as="geometry" />
        </mxCell>
        <mxCell id="n-hH0kZuh-ACeAebBSYg-7" value="&lt;b&gt;主引导扇区程序（加载器）&lt;br&gt;及其栈&lt;/b&gt;" style="rounded=0;whiteSpace=wrap;html=1;fillColor=#f8cecc;strokeColor=#b85450;" parent="1" vertex="1">
          <mxGeometry x="963" y="1536" width="172" height="73" as="geometry" />
        </mxCell>
        <mxCell id="n-hH0kZuh-ACeAebBSYg-8" value="" style="rounded=0;whiteSpace=wrap;html=1;fillColor=#d5e8d4;strokeColor=#82b366;" parent="1" vertex="1">
          <mxGeometry x="963" y="1609" width="172" height="73" as="geometry" />
        </mxCell>
        <mxCell id="n-hH0kZuh-ACeAebBSYg-9" value="&lt;b&gt;0x00000&lt;/b&gt;" style="text;html=1;align=center;verticalAlign=middle;resizable=0;points=[];autosize=1;strokeColor=none;fillColor=none;" parent="1" vertex="1">
          <mxGeometry x="898" y="1668" width="65" height="26" as="geometry" />
        </mxCell>
        <mxCell id="n-hH0kZuh-ACeAebBSYg-10" value="&lt;b&gt;0x0FFFF&lt;/b&gt;" style="text;html=1;align=center;verticalAlign=middle;resizable=0;points=[];autosize=1;strokeColor=none;fillColor=none;" parent="1" vertex="1">
          <mxGeometry x="896" y="1540" width="67" height="26" as="geometry" />
        </mxCell>
        <mxCell id="n-hH0kZuh-ACeAebBSYg-11" value="" style="shape=curlyBracket;whiteSpace=wrap;html=1;rounded=1;flipH=1;labelPosition=right;verticalLabelPosition=middle;align=left;verticalAlign=middle;" parent="1" vertex="1">
          <mxGeometry x="1144" y="1284" width="20" height="252" as="geometry" />
        </mxCell>
        <mxCell id="n-hH0kZuh-ACeAebBSYg-13" value="&lt;b&gt;可用的空间&lt;/b&gt;" style="text;html=1;align=center;verticalAlign=middle;resizable=0;points=[];autosize=1;strokeColor=none;fillColor=none;" parent="1" vertex="1">
          <mxGeometry x="1164" y="1397" width="78" height="26" as="geometry" />
        </mxCell>
        <mxCell id="n-hH0kZuh-ACeAebBSYg-14" value="&lt;b&gt;0x10000&lt;/b&gt;" style="text;html=1;align=center;verticalAlign=middle;resizable=0;points=[];autosize=1;strokeColor=none;fillColor=none;" parent="1" vertex="1">
          <mxGeometry x="897" y="1510" width="65" height="26" as="geometry" />
        </mxCell>
        <mxCell id="n-hH0kZuh-ACeAebBSYg-15" value="&lt;b&gt;0x9FFFF&lt;/b&gt;" style="text;html=1;align=center;verticalAlign=middle;resizable=0;points=[];autosize=1;strokeColor=none;fillColor=none;" parent="1" vertex="1">
          <mxGeometry x="897" y="1284" width="67" height="26" as="geometry" />
        </mxCell>
        <mxCell id="n-hH0kZuh-ACeAebBSYg-16" value="&lt;b&gt;0xA0000&lt;/b&gt;" style="text;html=1;align=center;verticalAlign=middle;resizable=0;points=[];autosize=1;strokeColor=none;fillColor=none;" parent="1" vertex="1">
          <mxGeometry x="896" y="1258" width="67" height="26" as="geometry" />
        </mxCell>
        <mxCell id="n-hH0kZuh-ACeAebBSYg-17" value="&lt;b&gt;0xFFFFF&lt;/b&gt;" style="text;html=1;align=center;verticalAlign=middle;resizable=0;points=[];autosize=1;strokeColor=none;fillColor=none;" parent="1" vertex="1">
          <mxGeometry x="895" y="1162" width="68" height="26" as="geometry" />
        </mxCell>
        <mxCell id="fDIzVZO8pv_HRBV_HdrS-1" value="&lt;font style=&quot;font-size: 15px;&quot;&gt;&lt;b&gt;1&lt;/b&gt;&lt;/font&gt;" style="rounded=0;whiteSpace=wrap;html=1;fillColor=#ffe6cc;strokeColor=#d79b00;" parent="1" vertex="1">
          <mxGeometry x="263" y="2045" width="54" height="53" as="geometry" />
        </mxCell>
        <mxCell id="fDIzVZO8pv_HRBV_HdrS-2" value="" style="rounded=0;whiteSpace=wrap;html=1;fillColor=#f8cecc;strokeColor=#b85450;" parent="1" vertex="1">
          <mxGeometry x="317" y="2045" width="54" height="53" as="geometry" />
        </mxCell>
        <mxCell id="fDIzVZO8pv_HRBV_HdrS-3" value="&lt;font style=&quot;font-size: 15px;&quot;&gt;&lt;b&gt;1&lt;/b&gt;&lt;/font&gt;" style="rounded=0;whiteSpace=wrap;html=1;fillColor=#ffe6cc;strokeColor=#d79b00;" parent="1" vertex="1">
          <mxGeometry x="371" y="2045" width="54" height="53" as="geometry" />
        </mxCell>
        <mxCell id="fDIzVZO8pv_HRBV_HdrS-4" value="" style="rounded=0;whiteSpace=wrap;html=1;fillColor=#d5e8d4;strokeColor=#82b366;" parent="1" vertex="1">
          <mxGeometry x="425" y="2045" width="54" height="53" as="geometry" />
        </mxCell>
        <mxCell id="fDIzVZO8pv_HRBV_HdrS-5" value="" style="rounded=0;whiteSpace=wrap;html=1;" parent="1" vertex="1">
          <mxGeometry x="479" y="2045" width="54" height="53" as="geometry" />
        </mxCell>
        <mxCell id="fDIzVZO8pv_HRBV_HdrS-6" value="" style="rounded=0;whiteSpace=wrap;html=1;" parent="1" vertex="1">
          <mxGeometry x="533" y="2045" width="54" height="53" as="geometry" />
        </mxCell>
        <mxCell id="fDIzVZO8pv_HRBV_HdrS-7" value="" style="rounded=0;whiteSpace=wrap;html=1;" parent="1" vertex="1">
          <mxGeometry x="587" y="2045" width="54" height="53" as="geometry" />
        </mxCell>
        <mxCell id="fDIzVZO8pv_HRBV_HdrS-8" value="" style="rounded=0;whiteSpace=wrap;html=1;" parent="1" vertex="1">
          <mxGeometry x="641" y="2045" width="54" height="53" as="geometry" />
        </mxCell>
        <mxCell id="fDIzVZO8pv_HRBV_HdrS-9" value="&lt;b&gt;&lt;font style=&quot;font-size: 15px;&quot;&gt;0&lt;/font&gt;&lt;/b&gt;" style="text;html=1;align=center;verticalAlign=middle;resizable=0;points=[];autosize=1;strokeColor=none;fillColor=none;" parent="1" vertex="1">
          <mxGeometry x="655" y="2015" width="26" height="30" as="geometry" />
        </mxCell>
        <mxCell id="fDIzVZO8pv_HRBV_HdrS-10" value="&lt;b&gt;&lt;font style=&quot;font-size: 15px;&quot;&gt;1&lt;/font&gt;&lt;/b&gt;" style="text;html=1;align=center;verticalAlign=middle;resizable=0;points=[];autosize=1;strokeColor=none;fillColor=none;" parent="1" vertex="1">
          <mxGeometry x="598" y="2015" width="26" height="30" as="geometry" />
        </mxCell>
        <mxCell id="fDIzVZO8pv_HRBV_HdrS-11" value="&lt;b&gt;&lt;font style=&quot;font-size: 15px;&quot;&gt;2&lt;/font&gt;&lt;/b&gt;" style="text;html=1;align=center;verticalAlign=middle;resizable=0;points=[];autosize=1;strokeColor=none;fillColor=none;" parent="1" vertex="1">
          <mxGeometry x="549" y="2015" width="26" height="30" as="geometry" />
        </mxCell>
        <mxCell id="fDIzVZO8pv_HRBV_HdrS-12" value="&lt;b&gt;&lt;font style=&quot;font-size: 15px;&quot;&gt;3&lt;/font&gt;&lt;/b&gt;" style="text;html=1;align=center;verticalAlign=middle;resizable=0;points=[];autosize=1;strokeColor=none;fillColor=none;" parent="1" vertex="1">
          <mxGeometry x="492" y="2015" width="26" height="30" as="geometry" />
        </mxCell>
        <mxCell id="fDIzVZO8pv_HRBV_HdrS-13" value="&lt;b&gt;&lt;font style=&quot;font-size: 15px;&quot;&gt;4&lt;/font&gt;&lt;/b&gt;" style="text;html=1;align=center;verticalAlign=middle;resizable=0;points=[];autosize=1;strokeColor=none;fillColor=none;" parent="1" vertex="1">
          <mxGeometry x="441" y="2015" width="26" height="30" as="geometry" />
        </mxCell>
        <mxCell id="fDIzVZO8pv_HRBV_HdrS-14" value="&lt;b&gt;&lt;font style=&quot;font-size: 15px;&quot;&gt;5&lt;/font&gt;&lt;/b&gt;" style="text;html=1;align=center;verticalAlign=middle;resizable=0;points=[];autosize=1;strokeColor=none;fillColor=none;" parent="1" vertex="1">
          <mxGeometry x="384" y="2015" width="26" height="30" as="geometry" />
        </mxCell>
        <mxCell id="fDIzVZO8pv_HRBV_HdrS-15" value="&lt;b&gt;&lt;font style=&quot;font-size: 15px;&quot;&gt;6&lt;/font&gt;&lt;/b&gt;" style="text;html=1;align=center;verticalAlign=middle;resizable=0;points=[];autosize=1;strokeColor=none;fillColor=none;" parent="1" vertex="1">
          <mxGeometry x="335" y="2015" width="26" height="30" as="geometry" />
        </mxCell>
        <mxCell id="fDIzVZO8pv_HRBV_HdrS-16" value="&lt;b&gt;&lt;font style=&quot;font-size: 15px;&quot;&gt;7&lt;/font&gt;&lt;/b&gt;" style="text;html=1;align=center;verticalAlign=middle;resizable=0;points=[];autosize=1;strokeColor=none;fillColor=none;" parent="1" vertex="1">
          <mxGeometry x="278" y="2015" width="26" height="30" as="geometry" />
        </mxCell>
        <mxCell id="fDIzVZO8pv_HRBV_HdrS-18" value="" style="shape=curlyBracket;whiteSpace=wrap;html=1;rounded=1;flipH=1;labelPosition=right;verticalLabelPosition=middle;align=left;verticalAlign=middle;rotation=90;" parent="1" vertex="1">
          <mxGeometry x="579" y="2013" width="20" height="212" as="geometry" />
        </mxCell>
        <mxCell id="fDIzVZO8pv_HRBV_HdrS-19" value="&lt;b&gt;&lt;font style=&quot;font-size: 14px;&quot;&gt;逻辑扇区号 27~24 位&lt;/font&gt;&lt;/b&gt;" style="text;html=1;align=center;verticalAlign=middle;resizable=0;points=[];autosize=1;strokeColor=none;fillColor=none;" parent="1" vertex="1">
          <mxGeometry x="518" y="2133" width="149" height="29" as="geometry" />
        </mxCell>
        <mxCell id="fDIzVZO8pv_HRBV_HdrS-20" value="" style="edgeStyle=segmentEdgeStyle;endArrow=classic;html=1;curved=0;rounded=0;endSize=8;startSize=8;fontSize=15;strokeWidth=2;" parent="1" edge="1">
          <mxGeometry width="50" height="50" relative="1" as="geometry">
            <mxPoint x="292" y="2146" as="sourcePoint" />
            <mxPoint x="342" y="2104" as="targetPoint" />
            <Array as="points">
              <mxPoint x="292" y="2145" />
              <mxPoint x="342" y="2145" />
            </Array>
          </mxGeometry>
        </mxCell>
        <mxCell id="fDIzVZO8pv_HRBV_HdrS-22" value="&lt;b style=&quot;font-size: 13px;&quot;&gt;0：CHS&lt;br&gt;1：LBA&lt;/b&gt;" style="text;html=1;align=center;verticalAlign=middle;resizable=0;points=[];autosize=1;strokeColor=none;fillColor=none;" parent="1" vertex="1">
          <mxGeometry x="225" y="2123" width="66" height="43" as="geometry" />
        </mxCell>
        <mxCell id="fDIzVZO8pv_HRBV_HdrS-23" value="" style="edgeStyle=segmentEdgeStyle;endArrow=classic;html=1;curved=0;rounded=0;endSize=8;startSize=8;fontSize=15;strokeWidth=2;" parent="1" edge="1">
          <mxGeometry width="50" height="50" relative="1" as="geometry">
            <mxPoint x="400" y="2217" as="sourcePoint" />
            <mxPoint x="450" y="2104" as="targetPoint" />
            <Array as="points">
              <mxPoint x="400" y="2217" />
              <mxPoint x="450" y="2217" />
            </Array>
          </mxGeometry>
        </mxCell>
        <mxCell id="fDIzVZO8pv_HRBV_HdrS-24" value="&lt;b style=&quot;font-size: 13px;&quot;&gt;0：主硬盘&lt;br&gt;1：从硬盘&lt;/b&gt;" style="text;html=1;align=center;verticalAlign=middle;resizable=0;points=[];autosize=1;strokeColor=none;fillColor=none;" parent="1" vertex="1">
          <mxGeometry x="323" y="2197" width="77" height="43" as="geometry" />
        </mxCell>
        <mxCell id="fDIzVZO8pv_HRBV_HdrS-25" value="&lt;b style=&quot;&quot;&gt;&lt;font style=&quot;font-size: 14px;&quot;&gt;BSY&lt;/font&gt;&lt;/b&gt;" style="rounded=0;whiteSpace=wrap;html=1;fillColor=#ffe6cc;strokeColor=#d79b00;" parent="1" vertex="1">
          <mxGeometry x="263" y="2377" width="54" height="53" as="geometry" />
        </mxCell>
        <mxCell id="fDIzVZO8pv_HRBV_HdrS-26" value="" style="rounded=0;whiteSpace=wrap;html=1;fillColor=#f8cecc;strokeColor=#b85450;" parent="1" vertex="1">
          <mxGeometry x="317" y="2377" width="54" height="53" as="geometry" />
        </mxCell>
        <mxCell id="fDIzVZO8pv_HRBV_HdrS-27" value="" style="rounded=0;whiteSpace=wrap;html=1;fillColor=#ffe6cc;strokeColor=#d79b00;" parent="1" vertex="1">
          <mxGeometry x="371" y="2377" width="54" height="53" as="geometry" />
        </mxCell>
        <mxCell id="fDIzVZO8pv_HRBV_HdrS-28" value="" style="rounded=0;whiteSpace=wrap;html=1;fillColor=#d5e8d4;strokeColor=#82b366;" parent="1" vertex="1">
          <mxGeometry x="425" y="2377" width="54" height="53" as="geometry" />
        </mxCell>
        <mxCell id="fDIzVZO8pv_HRBV_HdrS-29" value="&lt;font size=&quot;1&quot; style=&quot;&quot;&gt;&lt;b style=&quot;font-size: 14px;&quot;&gt;DRQ&lt;/b&gt;&lt;/font&gt;" style="rounded=0;whiteSpace=wrap;html=1;" parent="1" vertex="1">
          <mxGeometry x="479" y="2377" width="54" height="53" as="geometry" />
        </mxCell>
        <mxCell id="fDIzVZO8pv_HRBV_HdrS-30" value="" style="rounded=0;whiteSpace=wrap;html=1;" parent="1" vertex="1">
          <mxGeometry x="533" y="2377" width="54" height="53" as="geometry" />
        </mxCell>
        <mxCell id="fDIzVZO8pv_HRBV_HdrS-31" value="" style="rounded=0;whiteSpace=wrap;html=1;" parent="1" vertex="1">
          <mxGeometry x="587" y="2377" width="54" height="53" as="geometry" />
        </mxCell>
        <mxCell id="fDIzVZO8pv_HRBV_HdrS-32" value="&lt;b&gt;&lt;font style=&quot;font-size: 14px;&quot;&gt;ERR&lt;/font&gt;&lt;/b&gt;" style="rounded=0;whiteSpace=wrap;html=1;" parent="1" vertex="1">
          <mxGeometry x="641" y="2377" width="54" height="53" as="geometry" />
        </mxCell>
        <mxCell id="fDIzVZO8pv_HRBV_HdrS-33" value="&lt;b&gt;&lt;font style=&quot;font-size: 15px;&quot;&gt;0&lt;/font&gt;&lt;/b&gt;" style="text;html=1;align=center;verticalAlign=middle;resizable=0;points=[];autosize=1;strokeColor=none;fillColor=none;" parent="1" vertex="1">
          <mxGeometry x="655" y="2347" width="26" height="30" as="geometry" />
        </mxCell>
        <mxCell id="fDIzVZO8pv_HRBV_HdrS-34" value="&lt;b&gt;&lt;font style=&quot;font-size: 15px;&quot;&gt;1&lt;/font&gt;&lt;/b&gt;" style="text;html=1;align=center;verticalAlign=middle;resizable=0;points=[];autosize=1;strokeColor=none;fillColor=none;" parent="1" vertex="1">
          <mxGeometry x="598" y="2347" width="26" height="30" as="geometry" />
        </mxCell>
        <mxCell id="fDIzVZO8pv_HRBV_HdrS-35" value="&lt;b&gt;&lt;font style=&quot;font-size: 15px;&quot;&gt;2&lt;/font&gt;&lt;/b&gt;" style="text;html=1;align=center;verticalAlign=middle;resizable=0;points=[];autosize=1;strokeColor=none;fillColor=none;" parent="1" vertex="1">
          <mxGeometry x="549" y="2347" width="26" height="30" as="geometry" />
        </mxCell>
        <mxCell id="fDIzVZO8pv_HRBV_HdrS-36" value="&lt;b&gt;&lt;font style=&quot;font-size: 15px;&quot;&gt;3&lt;/font&gt;&lt;/b&gt;" style="text;html=1;align=center;verticalAlign=middle;resizable=0;points=[];autosize=1;strokeColor=none;fillColor=none;" parent="1" vertex="1">
          <mxGeometry x="492" y="2347" width="26" height="30" as="geometry" />
        </mxCell>
        <mxCell id="fDIzVZO8pv_HRBV_HdrS-37" value="&lt;b&gt;&lt;font style=&quot;font-size: 15px;&quot;&gt;4&lt;/font&gt;&lt;/b&gt;" style="text;html=1;align=center;verticalAlign=middle;resizable=0;points=[];autosize=1;strokeColor=none;fillColor=none;" parent="1" vertex="1">
          <mxGeometry x="441" y="2347" width="26" height="30" as="geometry" />
        </mxCell>
        <mxCell id="fDIzVZO8pv_HRBV_HdrS-38" value="&lt;b&gt;&lt;font style=&quot;font-size: 15px;&quot;&gt;5&lt;/font&gt;&lt;/b&gt;" style="text;html=1;align=center;verticalAlign=middle;resizable=0;points=[];autosize=1;strokeColor=none;fillColor=none;" parent="1" vertex="1">
          <mxGeometry x="384" y="2347" width="26" height="30" as="geometry" />
        </mxCell>
        <mxCell id="fDIzVZO8pv_HRBV_HdrS-39" value="&lt;b&gt;&lt;font style=&quot;font-size: 15px;&quot;&gt;6&lt;/font&gt;&lt;/b&gt;" style="text;html=1;align=center;verticalAlign=middle;resizable=0;points=[];autosize=1;strokeColor=none;fillColor=none;" parent="1" vertex="1">
          <mxGeometry x="335" y="2347" width="26" height="30" as="geometry" />
        </mxCell>
        <mxCell id="fDIzVZO8pv_HRBV_HdrS-40" value="&lt;b&gt;&lt;font style=&quot;font-size: 15px;&quot;&gt;7&lt;/font&gt;&lt;/b&gt;" style="text;html=1;align=center;verticalAlign=middle;resizable=0;points=[];autosize=1;strokeColor=none;fillColor=none;" parent="1" vertex="1">
          <mxGeometry x="278" y="2347" width="26" height="30" as="geometry" />
        </mxCell>
        <mxCell id="fDIzVZO8pv_HRBV_HdrS-43" value="" style="edgeStyle=segmentEdgeStyle;endArrow=classic;html=1;curved=0;rounded=0;endSize=8;startSize=8;fontSize=15;strokeWidth=2;" parent="1" edge="1">
          <mxGeometry width="50" height="50" relative="1" as="geometry">
            <mxPoint x="292" y="2478" as="sourcePoint" />
            <mxPoint x="342" y="2436" as="targetPoint" />
            <Array as="points">
              <mxPoint x="292" y="2477" />
              <mxPoint x="342" y="2477" />
            </Array>
          </mxGeometry>
        </mxCell>
        <mxCell id="fDIzVZO8pv_HRBV_HdrS-44" value="&lt;b style=&quot;font-size: 13px;&quot;&gt;为 1 表明&lt;br&gt;硬盘很忙&lt;br&gt;&lt;/b&gt;" style="text;html=1;align=center;verticalAlign=middle;resizable=0;points=[];autosize=1;strokeColor=none;fillColor=none;" parent="1" vertex="1">
          <mxGeometry x="220" y="2459" width="71" height="43" as="geometry" />
        </mxCell>
        <mxCell id="fDIzVZO8pv_HRBV_HdrS-45" value="" style="edgeStyle=segmentEdgeStyle;endArrow=classic;html=1;curved=0;rounded=0;endSize=8;startSize=8;fontSize=15;strokeWidth=2;" parent="1" edge="1">
          <mxGeometry width="50" height="50" relative="1" as="geometry">
            <mxPoint x="622" y="2548" as="sourcePoint" />
            <mxPoint x="672" y="2435" as="targetPoint" />
            <Array as="points">
              <mxPoint x="622" y="2548" />
              <mxPoint x="672" y="2548" />
            </Array>
          </mxGeometry>
        </mxCell>
        <mxCell id="fDIzVZO8pv_HRBV_HdrS-46" value="&lt;b style=&quot;&quot;&gt;&lt;font style=&quot;font-size: 12px;&quot;&gt;为 1 表明前一个命令&lt;br&gt;执行出现错误&lt;/font&gt;&lt;br&gt;&lt;/b&gt;" style="text;html=1;align=center;verticalAlign=middle;resizable=0;points=[];autosize=1;strokeColor=none;fillColor=none;" parent="1" vertex="1">
          <mxGeometry x="492" y="2531" width="127" height="41" as="geometry" />
        </mxCell>
        <mxCell id="fDIzVZO8pv_HRBV_HdrS-47" value="" style="edgeStyle=segmentEdgeStyle;endArrow=classic;html=1;curved=0;rounded=0;endSize=8;startSize=8;fontSize=15;strokeWidth=2;" parent="1" edge="1">
          <mxGeometry width="50" height="50" relative="1" as="geometry">
            <mxPoint x="461" y="2516" as="sourcePoint" />
            <mxPoint x="508" y="2437.5" as="targetPoint" />
            <Array as="points">
              <mxPoint x="461" y="2516" />
              <mxPoint x="508" y="2516" />
            </Array>
          </mxGeometry>
        </mxCell>
        <mxCell id="fDIzVZO8pv_HRBV_HdrS-48" value="&lt;b style=&quot;&quot;&gt;&lt;font style=&quot;font-size: 12px;&quot;&gt;为 1 表明硬盘已经&lt;br&gt;准备好和主机交换数据&lt;/font&gt;&lt;br&gt;&lt;/b&gt;" style="text;html=1;align=center;verticalAlign=middle;resizable=0;points=[];autosize=1;strokeColor=none;fillColor=none;" parent="1" vertex="1">
          <mxGeometry x="328.5" y="2498" width="138" height="41" as="geometry" />
        </mxCell>
        <mxCell id="OUIGfnERuUNGmbplcGcp-1" value="" style="rounded=0;whiteSpace=wrap;html=1;strokeWidth=2;" parent="1" vertex="1">
          <mxGeometry x="1754" y="1580" width="924" height="287" as="geometry" />
        </mxCell>
        <mxCell id="OUIGfnERuUNGmbplcGcp-2" value="&lt;b&gt;&lt;font style=&quot;font-size: 20px;&quot;&gt;8259A&lt;/font&gt;&lt;/b&gt;" style="text;html=1;align=center;verticalAlign=middle;resizable=0;points=[];autosize=1;strokeColor=none;fillColor=none;" parent="1" vertex="1">
          <mxGeometry x="1764" y="1818" width="77" height="36" as="geometry" />
        </mxCell>
        <mxCell id="OUIGfnERuUNGmbplcGcp-4" value="&lt;b style=&quot;border-color: var(--border-color); font-size: 17px;&quot;&gt;0&lt;/b&gt;" style="rounded=0;whiteSpace=wrap;html=1;strokeWidth=2;" parent="1" vertex="1">
          <mxGeometry x="1849" y="1648" width="38" height="38" as="geometry" />
        </mxCell>
        <mxCell id="OUIGfnERuUNGmbplcGcp-5" value="&lt;b style=&quot;border-color: var(--border-color); font-size: 17px;&quot;&gt;&lt;font style=&quot;border-color: var(--border-color);&quot; color=&quot;#ff0000&quot;&gt;1&lt;/font&gt;&lt;/b&gt;" style="rounded=0;whiteSpace=wrap;html=1;strokeWidth=2;" parent="1" vertex="1">
          <mxGeometry x="1887" y="1648" width="38" height="38" as="geometry" />
        </mxCell>
        <mxCell id="OUIGfnERuUNGmbplcGcp-6" value="&lt;b style=&quot;border-color: var(--border-color); font-size: 17px;&quot;&gt;0&lt;/b&gt;" style="rounded=0;whiteSpace=wrap;html=1;strokeWidth=2;" parent="1" vertex="1">
          <mxGeometry x="1925" y="1648" width="38" height="38" as="geometry" />
        </mxCell>
        <mxCell id="OUIGfnERuUNGmbplcGcp-7" value="&lt;span style=&quot;font-size: 17px;&quot;&gt;&lt;b&gt;&lt;font color=&quot;#ff0000&quot;&gt;1&lt;/font&gt;&lt;/b&gt;&lt;/span&gt;" style="rounded=0;whiteSpace=wrap;html=1;strokeWidth=2;" parent="1" vertex="1">
          <mxGeometry x="1963" y="1648" width="38" height="38" as="geometry" />
        </mxCell>
        <mxCell id="OUIGfnERuUNGmbplcGcp-8" value="&lt;b style=&quot;border-color: var(--border-color); font-size: 17px;&quot;&gt;0&lt;/b&gt;" style="rounded=0;whiteSpace=wrap;html=1;strokeWidth=2;" parent="1" vertex="1">
          <mxGeometry x="2001" y="1648" width="38" height="38" as="geometry" />
        </mxCell>
        <mxCell id="OUIGfnERuUNGmbplcGcp-9" value="&lt;b style=&quot;border-color: var(--border-color); font-size: 17px;&quot;&gt;0&lt;/b&gt;" style="rounded=0;whiteSpace=wrap;html=1;strokeWidth=2;" parent="1" vertex="1">
          <mxGeometry x="2039" y="1648" width="38" height="38" as="geometry" />
        </mxCell>
        <mxCell id="OUIGfnERuUNGmbplcGcp-10" value="&lt;b style=&quot;border-color: var(--border-color); font-size: 17px;&quot;&gt;0&lt;/b&gt;" style="rounded=0;whiteSpace=wrap;html=1;strokeWidth=2;" parent="1" vertex="1">
          <mxGeometry x="2077" y="1648" width="38" height="38" as="geometry" />
        </mxCell>
        <mxCell id="OUIGfnERuUNGmbplcGcp-11" value="&lt;font style=&quot;font-size: 17px;&quot;&gt;&lt;b&gt;0&lt;/b&gt;&lt;/font&gt;" style="rounded=0;whiteSpace=wrap;html=1;strokeWidth=2;" parent="1" vertex="1">
          <mxGeometry x="2115" y="1648" width="38" height="38" as="geometry" />
        </mxCell>
        <mxCell id="OUIGfnERuUNGmbplcGcp-12" value="&lt;font size=&quot;1&quot; color=&quot;#0000ff&quot; style=&quot;&quot;&gt;&lt;b style=&quot;font-size: 20px;&quot;&gt;0&lt;/b&gt;&lt;/font&gt;" style="text;html=1;align=center;verticalAlign=middle;resizable=0;points=[];autosize=1;strokeColor=none;fillColor=none;fontFamily=Times New Roman;" parent="1" vertex="1">
          <mxGeometry x="2120.5" y="1612" width="28" height="36" as="geometry" />
        </mxCell>
        <mxCell id="OUIGfnERuUNGmbplcGcp-13" value="&lt;font size=&quot;1&quot; color=&quot;#0000ff&quot; style=&quot;&quot;&gt;&lt;b style=&quot;font-size: 20px;&quot;&gt;1&lt;/b&gt;&lt;/font&gt;" style="text;html=1;align=center;verticalAlign=middle;resizable=0;points=[];autosize=1;strokeColor=none;fillColor=none;fontFamily=Times New Roman;" parent="1" vertex="1">
          <mxGeometry x="2082.5" y="1612" width="28" height="36" as="geometry" />
        </mxCell>
        <mxCell id="OUIGfnERuUNGmbplcGcp-14" value="&lt;font size=&quot;1&quot; color=&quot;#0000ff&quot; style=&quot;&quot;&gt;&lt;b style=&quot;font-size: 20px;&quot;&gt;3&lt;/b&gt;&lt;/font&gt;" style="text;html=1;align=center;verticalAlign=middle;resizable=0;points=[];autosize=1;strokeColor=none;fillColor=none;fontFamily=Times New Roman;" parent="1" vertex="1">
          <mxGeometry x="2006.5" y="1612" width="28" height="36" as="geometry" />
        </mxCell>
        <mxCell id="OUIGfnERuUNGmbplcGcp-15" value="&lt;font size=&quot;1&quot; color=&quot;#0000ff&quot; style=&quot;&quot;&gt;&lt;b style=&quot;font-size: 20px;&quot;&gt;2&lt;/b&gt;&lt;/font&gt;" style="text;html=1;align=center;verticalAlign=middle;resizable=0;points=[];autosize=1;strokeColor=none;fillColor=none;fontFamily=Times New Roman;" parent="1" vertex="1">
          <mxGeometry x="2044.5" y="1612" width="28" height="36" as="geometry" />
        </mxCell>
        <mxCell id="OUIGfnERuUNGmbplcGcp-16" value="&lt;font size=&quot;1&quot; color=&quot;#0000ff&quot; style=&quot;&quot;&gt;&lt;b style=&quot;font-size: 20px;&quot;&gt;4&lt;/b&gt;&lt;/font&gt;" style="text;html=1;align=center;verticalAlign=middle;resizable=0;points=[];autosize=1;strokeColor=none;fillColor=none;fontFamily=Times New Roman;" parent="1" vertex="1">
          <mxGeometry x="1968.5" y="1612" width="28" height="36" as="geometry" />
        </mxCell>
        <mxCell id="OUIGfnERuUNGmbplcGcp-17" value="&lt;font size=&quot;1&quot; color=&quot;#0000ff&quot; style=&quot;&quot;&gt;&lt;b style=&quot;font-size: 20px;&quot;&gt;5&lt;/b&gt;&lt;/font&gt;" style="text;html=1;align=center;verticalAlign=middle;resizable=0;points=[];autosize=1;strokeColor=none;fillColor=none;fontFamily=Times New Roman;" parent="1" vertex="1">
          <mxGeometry x="1930.5" y="1612" width="28" height="36" as="geometry" />
        </mxCell>
        <mxCell id="OUIGfnERuUNGmbplcGcp-18" value="&lt;font size=&quot;1&quot; color=&quot;#0000ff&quot; style=&quot;&quot;&gt;&lt;b style=&quot;font-size: 20px;&quot;&gt;6&lt;/b&gt;&lt;/font&gt;" style="text;html=1;align=center;verticalAlign=middle;resizable=0;points=[];autosize=1;strokeColor=none;fillColor=none;fontFamily=Times New Roman;" parent="1" vertex="1">
          <mxGeometry x="1892.5" y="1612" width="28" height="36" as="geometry" />
        </mxCell>
        <mxCell id="OUIGfnERuUNGmbplcGcp-19" value="&lt;font size=&quot;1&quot; color=&quot;#0000ff&quot; style=&quot;&quot;&gt;&lt;b style=&quot;font-size: 20px;&quot;&gt;7&lt;/b&gt;&lt;/font&gt;" style="text;html=1;align=center;verticalAlign=middle;resizable=0;points=[];autosize=1;strokeColor=none;fillColor=none;fontFamily=Times New Roman;" parent="1" vertex="1">
          <mxGeometry x="1854.5" y="1612" width="28" height="36" as="geometry" />
        </mxCell>
        <mxCell id="OUIGfnERuUNGmbplcGcp-20" value="&lt;span style=&quot;font-size: 20px;&quot;&gt;&lt;b&gt;&lt;font face=&quot;Times New Roman&quot;&gt;ISR&lt;/font&gt;&lt;/b&gt;&lt;/span&gt;" style="text;html=1;align=center;verticalAlign=middle;resizable=0;points=[];autosize=1;strokeColor=none;fillColor=none;" parent="1" vertex="1">
          <mxGeometry x="1796" y="1648" width="51" height="37" as="geometry" />
        </mxCell>
        <mxCell id="OUIGfnERuUNGmbplcGcp-22" value="&lt;b style=&quot;border-color: var(--border-color); font-size: 17px;&quot;&gt;0&lt;/b&gt;" style="rounded=0;whiteSpace=wrap;html=1;strokeWidth=2;" parent="1" vertex="1">
          <mxGeometry x="2303" y="1647" width="38" height="38" as="geometry" />
        </mxCell>
        <mxCell id="OUIGfnERuUNGmbplcGcp-23" value="&lt;b style=&quot;border-color: var(--border-color); font-size: 17px;&quot;&gt;&lt;font style=&quot;border-color: var(--border-color);&quot;&gt;0&lt;/font&gt;&lt;/b&gt;" style="rounded=0;whiteSpace=wrap;html=1;strokeWidth=2;" parent="1" vertex="1">
          <mxGeometry x="2341" y="1647" width="38" height="38" as="geometry" />
        </mxCell>
        <mxCell id="OUIGfnERuUNGmbplcGcp-24" value="&lt;b style=&quot;border-color: var(--border-color); font-size: 17px;&quot;&gt;&lt;font color=&quot;#ff0000&quot;&gt;1&lt;/font&gt;&lt;/b&gt;" style="rounded=0;whiteSpace=wrap;html=1;strokeWidth=2;" parent="1" vertex="1">
          <mxGeometry x="2379" y="1647" width="38" height="38" as="geometry" />
        </mxCell>
        <mxCell id="OUIGfnERuUNGmbplcGcp-25" value="&lt;span style=&quot;font-size: 17px;&quot;&gt;&lt;b&gt;0&lt;/b&gt;&lt;/span&gt;" style="rounded=0;whiteSpace=wrap;html=1;strokeWidth=2;" parent="1" vertex="1">
          <mxGeometry x="2417" y="1647" width="38" height="38" as="geometry" />
        </mxCell>
        <mxCell id="OUIGfnERuUNGmbplcGcp-26" value="&lt;b style=&quot;border-color: var(--border-color); font-size: 17px;&quot;&gt;&lt;font color=&quot;#ff0000&quot;&gt;1&lt;/font&gt;&lt;/b&gt;" style="rounded=0;whiteSpace=wrap;html=1;strokeWidth=2;" parent="1" vertex="1">
          <mxGeometry x="2455" y="1647" width="38" height="38" as="geometry" />
        </mxCell>
        <mxCell id="OUIGfnERuUNGmbplcGcp-27" value="&lt;b style=&quot;border-color: var(--border-color); font-size: 17px;&quot;&gt;&lt;font color=&quot;#ff0000&quot;&gt;1&lt;/font&gt;&lt;/b&gt;" style="rounded=0;whiteSpace=wrap;html=1;strokeWidth=2;" parent="1" vertex="1">
          <mxGeometry x="2493" y="1647" width="38" height="38" as="geometry" />
        </mxCell>
        <mxCell id="OUIGfnERuUNGmbplcGcp-28" value="&lt;b style=&quot;border-color: var(--border-color); font-size: 17px;&quot;&gt;0&lt;/b&gt;" style="rounded=0;whiteSpace=wrap;html=1;strokeWidth=2;" parent="1" vertex="1">
          <mxGeometry x="2531" y="1647" width="38" height="38" as="geometry" />
        </mxCell>
        <mxCell id="OUIGfnERuUNGmbplcGcp-29" value="&lt;font style=&quot;font-size: 17px;&quot;&gt;&lt;b&gt;0&lt;/b&gt;&lt;/font&gt;" style="rounded=0;whiteSpace=wrap;html=1;strokeWidth=2;" parent="1" vertex="1">
          <mxGeometry x="2569" y="1647" width="38" height="38" as="geometry" />
        </mxCell>
        <mxCell id="OUIGfnERuUNGmbplcGcp-30" value="&lt;font size=&quot;1&quot; color=&quot;#0000ff&quot; style=&quot;&quot;&gt;&lt;b style=&quot;font-size: 20px;&quot;&gt;0&lt;/b&gt;&lt;/font&gt;" style="text;html=1;align=center;verticalAlign=middle;resizable=0;points=[];autosize=1;strokeColor=none;fillColor=none;fontFamily=Times New Roman;" parent="1" vertex="1">
          <mxGeometry x="2574.5" y="1611" width="28" height="36" as="geometry" />
        </mxCell>
        <mxCell id="OUIGfnERuUNGmbplcGcp-31" value="&lt;font size=&quot;1&quot; color=&quot;#0000ff&quot; style=&quot;&quot;&gt;&lt;b style=&quot;font-size: 20px;&quot;&gt;1&lt;/b&gt;&lt;/font&gt;" style="text;html=1;align=center;verticalAlign=middle;resizable=0;points=[];autosize=1;strokeColor=none;fillColor=none;fontFamily=Times New Roman;" parent="1" vertex="1">
          <mxGeometry x="2536.5" y="1611" width="28" height="36" as="geometry" />
        </mxCell>
        <mxCell id="OUIGfnERuUNGmbplcGcp-32" value="&lt;font size=&quot;1&quot; color=&quot;#0000ff&quot; style=&quot;&quot;&gt;&lt;b style=&quot;font-size: 20px;&quot;&gt;3&lt;/b&gt;&lt;/font&gt;" style="text;html=1;align=center;verticalAlign=middle;resizable=0;points=[];autosize=1;strokeColor=none;fillColor=none;fontFamily=Times New Roman;" parent="1" vertex="1">
          <mxGeometry x="2460.5" y="1611" width="28" height="36" as="geometry" />
        </mxCell>
        <mxCell id="OUIGfnERuUNGmbplcGcp-33" value="&lt;font size=&quot;1&quot; color=&quot;#0000ff&quot; style=&quot;&quot;&gt;&lt;b style=&quot;font-size: 20px;&quot;&gt;2&lt;/b&gt;&lt;/font&gt;" style="text;html=1;align=center;verticalAlign=middle;resizable=0;points=[];autosize=1;strokeColor=none;fillColor=none;fontFamily=Times New Roman;" parent="1" vertex="1">
          <mxGeometry x="2498.5" y="1611" width="28" height="36" as="geometry" />
        </mxCell>
        <mxCell id="OUIGfnERuUNGmbplcGcp-34" value="&lt;font size=&quot;1&quot; color=&quot;#0000ff&quot; style=&quot;&quot;&gt;&lt;b style=&quot;font-size: 20px;&quot;&gt;4&lt;/b&gt;&lt;/font&gt;" style="text;html=1;align=center;verticalAlign=middle;resizable=0;points=[];autosize=1;strokeColor=none;fillColor=none;fontFamily=Times New Roman;" parent="1" vertex="1">
          <mxGeometry x="2422.5" y="1611" width="28" height="36" as="geometry" />
        </mxCell>
        <mxCell id="OUIGfnERuUNGmbplcGcp-35" value="&lt;font size=&quot;1&quot; color=&quot;#0000ff&quot; style=&quot;&quot;&gt;&lt;b style=&quot;font-size: 20px;&quot;&gt;5&lt;/b&gt;&lt;/font&gt;" style="text;html=1;align=center;verticalAlign=middle;resizable=0;points=[];autosize=1;strokeColor=none;fillColor=none;fontFamily=Times New Roman;" parent="1" vertex="1">
          <mxGeometry x="2384.5" y="1611" width="28" height="36" as="geometry" />
        </mxCell>
        <mxCell id="OUIGfnERuUNGmbplcGcp-36" value="&lt;font size=&quot;1&quot; color=&quot;#0000ff&quot; style=&quot;&quot;&gt;&lt;b style=&quot;font-size: 20px;&quot;&gt;6&lt;/b&gt;&lt;/font&gt;" style="text;html=1;align=center;verticalAlign=middle;resizable=0;points=[];autosize=1;strokeColor=none;fillColor=none;fontFamily=Times New Roman;" parent="1" vertex="1">
          <mxGeometry x="2346.5" y="1611" width="28" height="36" as="geometry" />
        </mxCell>
        <mxCell id="OUIGfnERuUNGmbplcGcp-37" value="&lt;font size=&quot;1&quot; color=&quot;#0000ff&quot; style=&quot;&quot;&gt;&lt;b style=&quot;font-size: 20px;&quot;&gt;7&lt;/b&gt;&lt;/font&gt;" style="text;html=1;align=center;verticalAlign=middle;resizable=0;points=[];autosize=1;strokeColor=none;fillColor=none;fontFamily=Times New Roman;" parent="1" vertex="1">
          <mxGeometry x="2308" y="1612" width="28" height="36" as="geometry" />
        </mxCell>
        <mxCell id="OUIGfnERuUNGmbplcGcp-38" value="&lt;font face=&quot;Times New Roman&quot;&gt;&lt;span style=&quot;font-size: 20px;&quot;&gt;&lt;b&gt;IRR&lt;/b&gt;&lt;/span&gt;&lt;/font&gt;" style="text;html=1;align=center;verticalAlign=middle;resizable=0;points=[];autosize=1;strokeColor=none;fillColor=none;" parent="1" vertex="1">
          <mxGeometry x="2248" y="1648" width="55" height="36" as="geometry" />
        </mxCell>
        <mxCell id="OUIGfnERuUNGmbplcGcp-39" value="&lt;b style=&quot;border-color: var(--border-color); font-size: 17px;&quot;&gt;0&lt;/b&gt;" style="rounded=0;whiteSpace=wrap;html=1;strokeWidth=2;" parent="1" vertex="1">
          <mxGeometry x="2087.5" y="1786" width="38" height="38" as="geometry" />
        </mxCell>
        <mxCell id="OUIGfnERuUNGmbplcGcp-40" value="&lt;b style=&quot;border-color: var(--border-color); font-size: 17px;&quot;&gt;&lt;font style=&quot;border-color: var(--border-color);&quot;&gt;0&lt;/font&gt;&lt;/b&gt;" style="rounded=0;whiteSpace=wrap;html=1;strokeWidth=2;" parent="1" vertex="1">
          <mxGeometry x="2125.5" y="1786" width="38" height="38" as="geometry" />
        </mxCell>
        <mxCell id="OUIGfnERuUNGmbplcGcp-41" value="&lt;b style=&quot;border-color: var(--border-color); font-size: 17px;&quot;&gt;0&lt;/b&gt;" style="rounded=0;whiteSpace=wrap;html=1;strokeWidth=2;" parent="1" vertex="1">
          <mxGeometry x="2163.5" y="1786" width="38" height="38" as="geometry" />
        </mxCell>
        <mxCell id="OUIGfnERuUNGmbplcGcp-42" value="&lt;span style=&quot;font-size: 17px;&quot;&gt;&lt;b&gt;0&lt;/b&gt;&lt;/span&gt;" style="rounded=0;whiteSpace=wrap;html=1;strokeWidth=2;" parent="1" vertex="1">
          <mxGeometry x="2201.5" y="1786" width="38" height="38" as="geometry" />
        </mxCell>
        <mxCell id="OUIGfnERuUNGmbplcGcp-43" value="&lt;b style=&quot;border-color: var(--border-color); font-size: 17px;&quot;&gt;0&lt;/b&gt;" style="rounded=0;whiteSpace=wrap;html=1;strokeWidth=2;" parent="1" vertex="1">
          <mxGeometry x="2239.5" y="1786" width="38" height="38" as="geometry" />
        </mxCell>
        <mxCell id="OUIGfnERuUNGmbplcGcp-44" value="&lt;b style=&quot;border-color: var(--border-color); font-size: 17px;&quot;&gt;&lt;font color=&quot;#ff0000&quot;&gt;1&lt;/font&gt;&lt;/b&gt;" style="rounded=0;whiteSpace=wrap;html=1;strokeWidth=2;" parent="1" vertex="1">
          <mxGeometry x="2277.5" y="1786" width="38" height="38" as="geometry" />
        </mxCell>
        <mxCell id="OUIGfnERuUNGmbplcGcp-45" value="&lt;b style=&quot;border-color: var(--border-color); font-size: 17px;&quot;&gt;0&lt;/b&gt;" style="rounded=0;whiteSpace=wrap;html=1;strokeWidth=2;" parent="1" vertex="1">
          <mxGeometry x="2315.5" y="1786" width="38" height="38" as="geometry" />
        </mxCell>
        <mxCell id="OUIGfnERuUNGmbplcGcp-46" value="&lt;font style=&quot;font-size: 17px;&quot;&gt;&lt;b&gt;0&lt;/b&gt;&lt;/font&gt;" style="rounded=0;whiteSpace=wrap;html=1;strokeWidth=2;" parent="1" vertex="1">
          <mxGeometry x="2353.5" y="1786" width="38" height="38" as="geometry" />
        </mxCell>
        <mxCell id="OUIGfnERuUNGmbplcGcp-47" value="&lt;font size=&quot;1&quot; color=&quot;#0000ff&quot; style=&quot;&quot;&gt;&lt;b style=&quot;font-size: 20px;&quot;&gt;0&lt;/b&gt;&lt;/font&gt;" style="text;html=1;align=center;verticalAlign=middle;resizable=0;points=[];autosize=1;strokeColor=none;fillColor=none;fontFamily=Times New Roman;" parent="1" vertex="1">
          <mxGeometry x="2359" y="1750" width="28" height="36" as="geometry" />
        </mxCell>
        <mxCell id="OUIGfnERuUNGmbplcGcp-48" value="&lt;font size=&quot;1&quot; color=&quot;#0000ff&quot; style=&quot;&quot;&gt;&lt;b style=&quot;font-size: 20px;&quot;&gt;1&lt;/b&gt;&lt;/font&gt;" style="text;html=1;align=center;verticalAlign=middle;resizable=0;points=[];autosize=1;strokeColor=none;fillColor=none;fontFamily=Times New Roman;" parent="1" vertex="1">
          <mxGeometry x="2321" y="1750" width="28" height="36" as="geometry" />
        </mxCell>
        <mxCell id="OUIGfnERuUNGmbplcGcp-49" value="&lt;font size=&quot;1&quot; color=&quot;#0000ff&quot; style=&quot;&quot;&gt;&lt;b style=&quot;font-size: 20px;&quot;&gt;3&lt;/b&gt;&lt;/font&gt;" style="text;html=1;align=center;verticalAlign=middle;resizable=0;points=[];autosize=1;strokeColor=none;fillColor=none;fontFamily=Times New Roman;" parent="1" vertex="1">
          <mxGeometry x="2245" y="1750" width="28" height="36" as="geometry" />
        </mxCell>
        <mxCell id="OUIGfnERuUNGmbplcGcp-50" value="&lt;font size=&quot;1&quot; color=&quot;#0000ff&quot; style=&quot;&quot;&gt;&lt;b style=&quot;font-size: 20px;&quot;&gt;2&lt;/b&gt;&lt;/font&gt;" style="text;html=1;align=center;verticalAlign=middle;resizable=0;points=[];autosize=1;strokeColor=none;fillColor=none;fontFamily=Times New Roman;" parent="1" vertex="1">
          <mxGeometry x="2283" y="1750" width="28" height="36" as="geometry" />
        </mxCell>
        <mxCell id="OUIGfnERuUNGmbplcGcp-51" value="&lt;font size=&quot;1&quot; color=&quot;#0000ff&quot; style=&quot;&quot;&gt;&lt;b style=&quot;font-size: 20px;&quot;&gt;4&lt;/b&gt;&lt;/font&gt;" style="text;html=1;align=center;verticalAlign=middle;resizable=0;points=[];autosize=1;strokeColor=none;fillColor=none;fontFamily=Times New Roman;" parent="1" vertex="1">
          <mxGeometry x="2207" y="1750" width="28" height="36" as="geometry" />
        </mxCell>
        <mxCell id="OUIGfnERuUNGmbplcGcp-52" value="&lt;font size=&quot;1&quot; color=&quot;#0000ff&quot; style=&quot;&quot;&gt;&lt;b style=&quot;font-size: 20px;&quot;&gt;5&lt;/b&gt;&lt;/font&gt;" style="text;html=1;align=center;verticalAlign=middle;resizable=0;points=[];autosize=1;strokeColor=none;fillColor=none;fontFamily=Times New Roman;" parent="1" vertex="1">
          <mxGeometry x="2169" y="1750" width="28" height="36" as="geometry" />
        </mxCell>
        <mxCell id="OUIGfnERuUNGmbplcGcp-53" value="&lt;font size=&quot;1&quot; color=&quot;#0000ff&quot; style=&quot;&quot;&gt;&lt;b style=&quot;font-size: 20px;&quot;&gt;6&lt;/b&gt;&lt;/font&gt;" style="text;html=1;align=center;verticalAlign=middle;resizable=0;points=[];autosize=1;strokeColor=none;fillColor=none;fontFamily=Times New Roman;" parent="1" vertex="1">
          <mxGeometry x="2131" y="1750" width="28" height="36" as="geometry" />
        </mxCell>
        <mxCell id="OUIGfnERuUNGmbplcGcp-54" value="&lt;font size=&quot;1&quot; color=&quot;#0000ff&quot; style=&quot;&quot;&gt;&lt;b style=&quot;font-size: 20px;&quot;&gt;7&lt;/b&gt;&lt;/font&gt;" style="text;html=1;align=center;verticalAlign=middle;resizable=0;points=[];autosize=1;strokeColor=none;fillColor=none;fontFamily=Times New Roman;" parent="1" vertex="1">
          <mxGeometry x="2093" y="1750" width="28" height="36" as="geometry" />
        </mxCell>
        <mxCell id="OUIGfnERuUNGmbplcGcp-55" value="&lt;span style=&quot;font-size: 20px;&quot;&gt;&lt;b&gt;&lt;font face=&quot;Times New Roman&quot;&gt;IMR&lt;/font&gt;&lt;/b&gt;&lt;/span&gt;" style="text;html=1;align=center;verticalAlign=middle;resizable=0;points=[];autosize=1;strokeColor=none;fillColor=none;" parent="1" vertex="1">
          <mxGeometry x="2028.5" y="1787" width="59" height="37" as="geometry" />
        </mxCell>
        <mxCell id="OUIGfnERuUNGmbplcGcp-61" value="&lt;b&gt;&lt;font color=&quot;#ff0000&quot; face=&quot;Times New Roman&quot; style=&quot;font-size: 20px;&quot;&gt;main&lt;/font&gt;&lt;/b&gt;" style="text;html=1;align=center;verticalAlign=middle;resizable=0;points=[];autosize=1;strokeColor=none;fillColor=none;" parent="1" vertex="1">
          <mxGeometry x="1907" y="1193" width="61" height="36" as="geometry" />
        </mxCell>
        <mxCell id="OUIGfnERuUNGmbplcGcp-63" value="&lt;b&gt;&lt;font face=&quot;Times New Roman&quot; style=&quot;font-size: 24px;&quot;&gt;......&lt;/font&gt;&lt;/b&gt;" style="text;html=1;align=center;verticalAlign=middle;resizable=0;points=[];autosize=1;strokeColor=none;fillColor=none;fontColor=#000000;" parent="1" vertex="1">
          <mxGeometry x="1972" y="1188" width="54" height="41" as="geometry" />
        </mxCell>
        <mxCell id="OUIGfnERuUNGmbplcGcp-64" value="&lt;b&gt;&lt;font face=&quot;Times New Roman&quot; style=&quot;font-size: 24px;&quot;&gt;......&lt;/font&gt;&lt;/b&gt;" style="text;html=1;align=center;verticalAlign=middle;resizable=0;points=[];autosize=1;strokeColor=none;fillColor=none;fontColor=#000000;" parent="1" vertex="1">
          <mxGeometry x="1972" y="1229" width="54" height="41" as="geometry" />
        </mxCell>
        <mxCell id="OUIGfnERuUNGmbplcGcp-78" style="edgeStyle=orthogonalEdgeStyle;rounded=0;orthogonalLoop=1;jettySize=auto;html=1;entryX=-0.007;entryY=0.398;entryDx=0;entryDy=0;entryPerimeter=0;curved=1;strokeWidth=2;strokeColor=#FF0000;" parent="1" source="OUIGfnERuUNGmbplcGcp-65" target="OUIGfnERuUNGmbplcGcp-70" edge="1">
          <mxGeometry relative="1" as="geometry" />
        </mxCell>
        <mxCell id="OUIGfnERuUNGmbplcGcp-65" value="&lt;b&gt;&lt;font face=&quot;Times New Roman&quot; style=&quot;font-size: 24px;&quot;&gt;......&lt;/font&gt;&lt;/b&gt;" style="text;html=1;align=center;verticalAlign=middle;resizable=0;points=[];autosize=1;strokeColor=none;fillColor=none;fontColor=#000000;" parent="1" vertex="1">
          <mxGeometry x="1972" y="1266" width="54" height="41" as="geometry" />
        </mxCell>
        <mxCell id="OUIGfnERuUNGmbplcGcp-66" value="&lt;b&gt;&lt;font face=&quot;Times New Roman&quot; style=&quot;font-size: 24px;&quot;&gt;......&lt;/font&gt;&lt;/b&gt;" style="text;html=1;align=center;verticalAlign=middle;resizable=0;points=[];autosize=1;strokeColor=none;fillColor=none;fontColor=#000000;" parent="1" vertex="1">
          <mxGeometry x="1972" y="1305" width="54" height="41" as="geometry" />
        </mxCell>
        <mxCell id="OUIGfnERuUNGmbplcGcp-67" value="&lt;b&gt;&lt;font face=&quot;Times New Roman&quot; style=&quot;font-size: 24px;&quot;&gt;......&lt;/font&gt;&lt;/b&gt;" style="text;html=1;align=center;verticalAlign=middle;resizable=0;points=[];autosize=1;strokeColor=none;fillColor=none;fontColor=#000000;" parent="1" vertex="1">
          <mxGeometry x="1972" y="1340" width="54" height="41" as="geometry" />
        </mxCell>
        <mxCell id="OUIGfnERuUNGmbplcGcp-68" value="&lt;b&gt;&lt;font face=&quot;Times New Roman&quot; style=&quot;font-size: 24px;&quot;&gt;......&lt;/font&gt;&lt;/b&gt;" style="text;html=1;align=center;verticalAlign=middle;resizable=0;points=[];autosize=1;strokeColor=none;fillColor=none;fontColor=#000000;" parent="1" vertex="1">
          <mxGeometry x="1972" y="1379" width="54" height="41" as="geometry" />
        </mxCell>
        <mxCell id="OUIGfnERuUNGmbplcGcp-69" value="&lt;font color=&quot;#ff0000&quot; style=&quot;font-size: 18px;&quot;&gt;&lt;b style=&quot;&quot;&gt;IR6&lt;/b&gt;&lt;/font&gt;" style="ellipse;shape=cloud;whiteSpace=wrap;html=1;fillColor=#ffff88;strokeColor=#36393d;" parent="1" vertex="1">
          <mxGeometry x="1905" y="1266" width="73" height="53" as="geometry" />
        </mxCell>
        <mxCell id="OUIGfnERuUNGmbplcGcp-70" value="&lt;b&gt;&lt;font face=&quot;Times New Roman&quot; style=&quot;font-size: 17px;&quot;&gt;PUSHr&lt;/font&gt;&lt;/b&gt;" style="text;html=1;align=center;verticalAlign=middle;resizable=0;points=[];autosize=1;strokeColor=none;fillColor=none;fontColor=#000000;" parent="1" vertex="1">
          <mxGeometry x="2104.5" y="1197.5" width="71" height="32" as="geometry" />
        </mxCell>
        <mxCell id="OUIGfnERuUNGmbplcGcp-71" value="&lt;b&gt;&lt;font face=&quot;Times New Roman&quot; style=&quot;font-size: 17px;&quot;&gt;（STI）&lt;/font&gt;&lt;/b&gt;" style="text;html=1;align=center;verticalAlign=middle;resizable=0;points=[];autosize=1;strokeColor=none;fillColor=none;fontColor=#000000;" parent="1" vertex="1">
          <mxGeometry x="2100.5" y="1234" width="79" height="32" as="geometry" />
        </mxCell>
        <mxCell id="OUIGfnERuUNGmbplcGcp-89" style="edgeStyle=orthogonalEdgeStyle;rounded=0;orthogonalLoop=1;jettySize=auto;html=1;entryX=0;entryY=0.43;entryDx=0;entryDy=0;entryPerimeter=0;curved=1;strokeWidth=2;strokeColor=#FF0000;" parent="1" source="OUIGfnERuUNGmbplcGcp-72" target="OUIGfnERuUNGmbplcGcp-81" edge="1">
          <mxGeometry relative="1" as="geometry" />
        </mxCell>
        <mxCell id="OUIGfnERuUNGmbplcGcp-72" value="&lt;b&gt;&lt;font face=&quot;Times New Roman&quot; style=&quot;font-size: 24px;&quot;&gt;......&lt;/font&gt;&lt;/b&gt;" style="text;html=1;align=center;verticalAlign=middle;resizable=0;points=[];autosize=1;strokeColor=none;fillColor=none;fontColor=#000000;" parent="1" vertex="1">
          <mxGeometry x="2112.5" y="1261" width="54" height="41" as="geometry" />
        </mxCell>
        <mxCell id="OUIGfnERuUNGmbplcGcp-73" value="&lt;b&gt;&lt;font face=&quot;Times New Roman&quot; style=&quot;font-size: 24px;&quot;&gt;......&lt;/font&gt;&lt;/b&gt;" style="text;html=1;align=center;verticalAlign=middle;resizable=0;points=[];autosize=1;strokeColor=none;fillColor=none;fontColor=#000000;" parent="1" vertex="1">
          <mxGeometry x="2112.5" y="1299" width="54" height="41" as="geometry" />
        </mxCell>
        <mxCell id="OUIGfnERuUNGmbplcGcp-74" value="&lt;b&gt;&lt;font face=&quot;Times New Roman&quot; style=&quot;font-size: 17px;&quot;&gt;（CLI）&lt;/font&gt;&lt;/b&gt;" style="text;html=1;align=center;verticalAlign=middle;resizable=0;points=[];autosize=1;strokeColor=none;fillColor=none;fontColor=#000000;" parent="1" vertex="1">
          <mxGeometry x="2099" y="1344.5" width="82" height="32" as="geometry" />
        </mxCell>
        <mxCell id="OUIGfnERuUNGmbplcGcp-75" value="&lt;b style=&quot;border-color: var(--border-color); font-family: &amp;quot;Times New Roman&amp;quot;; font-size: 17px;&quot;&gt;EOI&lt;/b&gt;" style="text;html=1;align=center;verticalAlign=middle;resizable=0;points=[];autosize=1;strokeColor=none;fillColor=none;fontColor=#000000;" parent="1" vertex="1">
          <mxGeometry x="2114.5" y="1376.5" width="49" height="32" as="geometry" />
        </mxCell>
        <mxCell id="OUIGfnERuUNGmbplcGcp-76" value="&lt;div style=&quot;text-align: center;&quot;&gt;&lt;span style=&quot;background-color: initial; font-size: 17px;&quot;&gt;&lt;font face=&quot;Times New Roman&quot;&gt;&lt;b&gt;POPr&lt;/b&gt;&lt;/font&gt;&lt;/span&gt;&lt;/div&gt;" style="text;whiteSpace=wrap;html=1;fontColor=#000000;" parent="1" vertex="1">
          <mxGeometry x="2119.5" y="1408.5000610351562" width="59" height="42" as="geometry" />
        </mxCell>
        <mxCell id="OUIGfnERuUNGmbplcGcp-77" value="&lt;div style=&quot;text-align: center;&quot;&gt;&lt;span style=&quot;background-color: initial; font-size: 17px;&quot;&gt;&lt;font face=&quot;Times New Roman&quot;&gt;&lt;b&gt;IRET&lt;/b&gt;&lt;/font&gt;&lt;/span&gt;&lt;/div&gt;" style="text;whiteSpace=wrap;html=1;fontColor=#000000;" parent="1" vertex="1">
          <mxGeometry x="2119.5" y="1444.0000610351562" width="59" height="42" as="geometry" />
        </mxCell>
        <mxCell id="OUIGfnERuUNGmbplcGcp-79" value="&lt;font color=&quot;#ff0000&quot; style=&quot;font-size: 18px;&quot;&gt;&lt;b&gt;IR6&lt;/b&gt;&lt;/font&gt;" style="text;html=1;align=center;verticalAlign=middle;resizable=0;points=[];autosize=1;strokeColor=none;fillColor=none;" parent="1" vertex="1">
          <mxGeometry x="2063.5" y="1175" width="46" height="34" as="geometry" />
        </mxCell>
        <mxCell id="OUIGfnERuUNGmbplcGcp-80" value="&lt;font color=&quot;#ff0000&quot; style=&quot;font-size: 18px;&quot;&gt;&lt;b style=&quot;&quot;&gt;IR4&lt;/b&gt;&lt;/font&gt;" style="ellipse;shape=cloud;whiteSpace=wrap;html=1;fillColor=#ffff88;strokeColor=#36393d;" parent="1" vertex="1">
          <mxGeometry x="2054" y="1266" width="65.5" height="48" as="geometry" />
        </mxCell>
        <mxCell id="OUIGfnERuUNGmbplcGcp-81" value="&lt;b&gt;&lt;font face=&quot;Times New Roman&quot; style=&quot;font-size: 17px;&quot;&gt;PUSHr&lt;/font&gt;&lt;/b&gt;" style="text;html=1;align=center;verticalAlign=middle;resizable=0;points=[];autosize=1;strokeColor=none;fillColor=none;fontColor=#000000;" parent="1" vertex="1">
          <mxGeometry x="2244" y="1197.5" width="71" height="32" as="geometry" />
        </mxCell>
        <mxCell id="OUIGfnERuUNGmbplcGcp-82" value="&lt;b&gt;&lt;font face=&quot;Times New Roman&quot; style=&quot;font-size: 17px;&quot;&gt;（STI）&lt;/font&gt;&lt;/b&gt;" style="text;html=1;align=center;verticalAlign=middle;resizable=0;points=[];autosize=1;strokeColor=none;fillColor=none;fontColor=#000000;" parent="1" vertex="1">
          <mxGeometry x="2240" y="1234" width="79" height="32" as="geometry" />
        </mxCell>
        <mxCell id="OUIGfnERuUNGmbplcGcp-83" value="&lt;b&gt;&lt;font face=&quot;Times New Roman&quot; style=&quot;font-size: 24px;&quot;&gt;......&lt;/font&gt;&lt;/b&gt;" style="text;html=1;align=center;verticalAlign=middle;resizable=0;points=[];autosize=1;strokeColor=none;fillColor=none;fontColor=#000000;" parent="1" vertex="1">
          <mxGeometry x="2252" y="1261" width="54" height="41" as="geometry" />
        </mxCell>
        <mxCell id="OUIGfnERuUNGmbplcGcp-84" value="&lt;b&gt;&lt;font face=&quot;Times New Roman&quot; style=&quot;font-size: 24px;&quot;&gt;......&lt;/font&gt;&lt;/b&gt;" style="text;html=1;align=center;verticalAlign=middle;resizable=0;points=[];autosize=1;strokeColor=none;fillColor=none;fontColor=#000000;" parent="1" vertex="1">
          <mxGeometry x="2252" y="1299" width="54" height="41" as="geometry" />
        </mxCell>
        <mxCell id="OUIGfnERuUNGmbplcGcp-85" value="&lt;b&gt;&lt;font face=&quot;Times New Roman&quot; style=&quot;font-size: 17px;&quot;&gt;（CLI）&lt;/font&gt;&lt;/b&gt;" style="text;html=1;align=center;verticalAlign=middle;resizable=0;points=[];autosize=1;strokeColor=none;fillColor=none;fontColor=#000000;" parent="1" vertex="1">
          <mxGeometry x="2238.5" y="1344.5" width="82" height="32" as="geometry" />
        </mxCell>
        <mxCell id="OUIGfnERuUNGmbplcGcp-86" value="&lt;b style=&quot;border-color: var(--border-color); font-family: &amp;quot;Times New Roman&amp;quot;; font-size: 17px;&quot;&gt;EOI&lt;/b&gt;" style="text;html=1;align=center;verticalAlign=middle;resizable=0;points=[];autosize=1;strokeColor=none;fillColor=none;fontColor=#000000;" parent="1" vertex="1">
          <mxGeometry x="2254" y="1376.5" width="49" height="32" as="geometry" />
        </mxCell>
        <mxCell id="OUIGfnERuUNGmbplcGcp-87" value="&lt;div style=&quot;text-align: center;&quot;&gt;&lt;span style=&quot;background-color: initial; font-size: 17px;&quot;&gt;&lt;font face=&quot;Times New Roman&quot;&gt;&lt;b&gt;POPr&lt;/b&gt;&lt;/font&gt;&lt;/span&gt;&lt;/div&gt;" style="text;whiteSpace=wrap;html=1;fontColor=#000000;" parent="1" vertex="1">
          <mxGeometry x="2259" y="1408.5000610351562" width="59" height="42" as="geometry" />
        </mxCell>
        <mxCell id="OUIGfnERuUNGmbplcGcp-88" value="&lt;div style=&quot;text-align: center;&quot;&gt;&lt;span style=&quot;background-color: initial; font-size: 17px;&quot;&gt;&lt;font face=&quot;Times New Roman&quot;&gt;&lt;b&gt;IRET&lt;/b&gt;&lt;/font&gt;&lt;/span&gt;&lt;/div&gt;" style="text;whiteSpace=wrap;html=1;fontColor=#000000;" parent="1" vertex="1">
          <mxGeometry x="2259" y="1444.0000610351562" width="59" height="42" as="geometry" />
        </mxCell>
        <mxCell id="OUIGfnERuUNGmbplcGcp-90" value="&lt;font color=&quot;#ff0000&quot; style=&quot;font-size: 18px;&quot;&gt;&lt;b&gt;IR4&lt;/b&gt;&lt;/font&gt;" style="text;html=1;align=center;verticalAlign=middle;resizable=0;points=[];autosize=1;strokeColor=none;fillColor=none;" parent="1" vertex="1">
          <mxGeometry x="2205" y="1175" width="46" height="34" as="geometry" />
        </mxCell>
        <mxCell id="OUIGfnERuUNGmbplcGcp-91" value="" style="rounded=0;whiteSpace=wrap;html=1;strokeWidth=2;" parent="1" vertex="1">
          <mxGeometry x="1754" y="1973" width="924" height="287" as="geometry" />
        </mxCell>
        <mxCell id="OUIGfnERuUNGmbplcGcp-92" value="&lt;b&gt;&lt;font style=&quot;font-size: 20px;&quot;&gt;8259A&lt;/font&gt;&lt;/b&gt;" style="text;html=1;align=center;verticalAlign=middle;resizable=0;points=[];autosize=1;strokeColor=none;fillColor=none;" parent="1" vertex="1">
          <mxGeometry x="1764" y="2211" width="77" height="36" as="geometry" />
        </mxCell>
        <mxCell id="OUIGfnERuUNGmbplcGcp-93" value="&lt;b style=&quot;border-color: var(--border-color); font-size: 17px;&quot;&gt;0&lt;/b&gt;" style="rounded=0;whiteSpace=wrap;html=1;strokeWidth=2;" parent="1" vertex="1">
          <mxGeometry x="1849" y="2041" width="38" height="38" as="geometry" />
        </mxCell>
        <mxCell id="OUIGfnERuUNGmbplcGcp-94" value="&lt;b style=&quot;border-color: var(--border-color); font-size: 17px;&quot;&gt;&lt;font style=&quot;border-color: var(--border-color);&quot; color=&quot;#ff0000&quot;&gt;1&lt;/font&gt;&lt;/b&gt;" style="rounded=0;whiteSpace=wrap;html=1;strokeWidth=2;" parent="1" vertex="1">
          <mxGeometry x="1887" y="2041" width="38" height="38" as="geometry" />
        </mxCell>
        <mxCell id="OUIGfnERuUNGmbplcGcp-95" value="&lt;b style=&quot;border-color: var(--border-color); font-size: 17px;&quot;&gt;0&lt;/b&gt;" style="rounded=0;whiteSpace=wrap;html=1;strokeWidth=2;" parent="1" vertex="1">
          <mxGeometry x="1925" y="2041" width="38" height="38" as="geometry" />
        </mxCell>
        <mxCell id="OUIGfnERuUNGmbplcGcp-96" value="&lt;span style=&quot;font-size: 17px;&quot;&gt;&lt;b&gt;&lt;font color=&quot;#ff0000&quot;&gt;1&lt;/font&gt;&lt;/b&gt;&lt;/span&gt;" style="rounded=0;whiteSpace=wrap;html=1;strokeWidth=2;" parent="1" vertex="1">
          <mxGeometry x="1963" y="2041" width="38" height="38" as="geometry" />
        </mxCell>
        <mxCell id="OUIGfnERuUNGmbplcGcp-97" value="&lt;b style=&quot;border-color: var(--border-color); font-size: 17px;&quot;&gt;&lt;font color=&quot;#4d9900&quot;&gt;1&lt;/font&gt;&lt;/b&gt;" style="rounded=0;whiteSpace=wrap;html=1;strokeWidth=2;" parent="1" vertex="1">
          <mxGeometry x="2001" y="2041" width="38" height="38" as="geometry" />
        </mxCell>
        <mxCell id="OUIGfnERuUNGmbplcGcp-98" value="&lt;b style=&quot;border-color: var(--border-color); font-size: 17px;&quot;&gt;0&lt;/b&gt;" style="rounded=0;whiteSpace=wrap;html=1;strokeWidth=2;" parent="1" vertex="1">
          <mxGeometry x="2039" y="2041" width="38" height="38" as="geometry" />
        </mxCell>
        <mxCell id="OUIGfnERuUNGmbplcGcp-99" value="&lt;b style=&quot;border-color: var(--border-color); font-size: 17px;&quot;&gt;0&lt;/b&gt;" style="rounded=0;whiteSpace=wrap;html=1;strokeWidth=2;" parent="1" vertex="1">
          <mxGeometry x="2077" y="2041" width="38" height="38" as="geometry" />
        </mxCell>
        <mxCell id="OUIGfnERuUNGmbplcGcp-100" value="&lt;font style=&quot;font-size: 17px;&quot;&gt;&lt;b&gt;0&lt;/b&gt;&lt;/font&gt;" style="rounded=0;whiteSpace=wrap;html=1;strokeWidth=2;" parent="1" vertex="1">
          <mxGeometry x="2115" y="2041" width="38" height="38" as="geometry" />
        </mxCell>
        <mxCell id="OUIGfnERuUNGmbplcGcp-101" value="&lt;font size=&quot;1&quot; color=&quot;#0000ff&quot; style=&quot;&quot;&gt;&lt;b style=&quot;font-size: 20px;&quot;&gt;0&lt;/b&gt;&lt;/font&gt;" style="text;html=1;align=center;verticalAlign=middle;resizable=0;points=[];autosize=1;strokeColor=none;fillColor=none;fontFamily=Times New Roman;" parent="1" vertex="1">
          <mxGeometry x="2120.5" y="2005" width="28" height="36" as="geometry" />
        </mxCell>
        <mxCell id="OUIGfnERuUNGmbplcGcp-102" value="&lt;font size=&quot;1&quot; color=&quot;#0000ff&quot; style=&quot;&quot;&gt;&lt;b style=&quot;font-size: 20px;&quot;&gt;1&lt;/b&gt;&lt;/font&gt;" style="text;html=1;align=center;verticalAlign=middle;resizable=0;points=[];autosize=1;strokeColor=none;fillColor=none;fontFamily=Times New Roman;" parent="1" vertex="1">
          <mxGeometry x="2082.5" y="2005" width="28" height="36" as="geometry" />
        </mxCell>
        <mxCell id="OUIGfnERuUNGmbplcGcp-103" value="&lt;font size=&quot;1&quot; color=&quot;#0000ff&quot; style=&quot;&quot;&gt;&lt;b style=&quot;font-size: 20px;&quot;&gt;3&lt;/b&gt;&lt;/font&gt;" style="text;html=1;align=center;verticalAlign=middle;resizable=0;points=[];autosize=1;strokeColor=none;fillColor=none;fontFamily=Times New Roman;" parent="1" vertex="1">
          <mxGeometry x="2006.5" y="2005" width="28" height="36" as="geometry" />
        </mxCell>
        <mxCell id="OUIGfnERuUNGmbplcGcp-104" value="&lt;font size=&quot;1&quot; color=&quot;#0000ff&quot; style=&quot;&quot;&gt;&lt;b style=&quot;font-size: 20px;&quot;&gt;2&lt;/b&gt;&lt;/font&gt;" style="text;html=1;align=center;verticalAlign=middle;resizable=0;points=[];autosize=1;strokeColor=none;fillColor=none;fontFamily=Times New Roman;" parent="1" vertex="1">
          <mxGeometry x="2044.5" y="2005" width="28" height="36" as="geometry" />
        </mxCell>
        <mxCell id="OUIGfnERuUNGmbplcGcp-105" value="&lt;font size=&quot;1&quot; color=&quot;#0000ff&quot; style=&quot;&quot;&gt;&lt;b style=&quot;font-size: 20px;&quot;&gt;4&lt;/b&gt;&lt;/font&gt;" style="text;html=1;align=center;verticalAlign=middle;resizable=0;points=[];autosize=1;strokeColor=none;fillColor=none;fontFamily=Times New Roman;" parent="1" vertex="1">
          <mxGeometry x="1968.5" y="2005" width="28" height="36" as="geometry" />
        </mxCell>
        <mxCell id="OUIGfnERuUNGmbplcGcp-106" value="&lt;font size=&quot;1&quot; color=&quot;#0000ff&quot; style=&quot;&quot;&gt;&lt;b style=&quot;font-size: 20px;&quot;&gt;5&lt;/b&gt;&lt;/font&gt;" style="text;html=1;align=center;verticalAlign=middle;resizable=0;points=[];autosize=1;strokeColor=none;fillColor=none;fontFamily=Times New Roman;" parent="1" vertex="1">
          <mxGeometry x="1930.5" y="2005" width="28" height="36" as="geometry" />
        </mxCell>
        <mxCell id="OUIGfnERuUNGmbplcGcp-107" value="&lt;font size=&quot;1&quot; color=&quot;#0000ff&quot; style=&quot;&quot;&gt;&lt;b style=&quot;font-size: 20px;&quot;&gt;6&lt;/b&gt;&lt;/font&gt;" style="text;html=1;align=center;verticalAlign=middle;resizable=0;points=[];autosize=1;strokeColor=none;fillColor=none;fontFamily=Times New Roman;" parent="1" vertex="1">
          <mxGeometry x="1892.5" y="2005" width="28" height="36" as="geometry" />
        </mxCell>
        <mxCell id="OUIGfnERuUNGmbplcGcp-108" value="&lt;font size=&quot;1&quot; color=&quot;#0000ff&quot; style=&quot;&quot;&gt;&lt;b style=&quot;font-size: 20px;&quot;&gt;7&lt;/b&gt;&lt;/font&gt;" style="text;html=1;align=center;verticalAlign=middle;resizable=0;points=[];autosize=1;strokeColor=none;fillColor=none;fontFamily=Times New Roman;" parent="1" vertex="1">
          <mxGeometry x="1854.5" y="2005" width="28" height="36" as="geometry" />
        </mxCell>
        <mxCell id="OUIGfnERuUNGmbplcGcp-109" value="&lt;span style=&quot;font-size: 20px;&quot;&gt;&lt;b&gt;&lt;font face=&quot;Times New Roman&quot;&gt;ISR&lt;/font&gt;&lt;/b&gt;&lt;/span&gt;" style="text;html=1;align=center;verticalAlign=middle;resizable=0;points=[];autosize=1;strokeColor=none;fillColor=none;" parent="1" vertex="1">
          <mxGeometry x="1796" y="2041" width="51" height="37" as="geometry" />
        </mxCell>
        <mxCell id="OUIGfnERuUNGmbplcGcp-110" value="&lt;b style=&quot;border-color: var(--border-color); font-size: 17px;&quot;&gt;0&lt;/b&gt;" style="rounded=0;whiteSpace=wrap;html=1;strokeWidth=2;" parent="1" vertex="1">
          <mxGeometry x="2303" y="2040" width="38" height="38" as="geometry" />
        </mxCell>
        <mxCell id="OUIGfnERuUNGmbplcGcp-111" value="&lt;b style=&quot;border-color: var(--border-color); font-size: 17px;&quot;&gt;&lt;font style=&quot;border-color: var(--border-color);&quot;&gt;0&lt;/font&gt;&lt;/b&gt;" style="rounded=0;whiteSpace=wrap;html=1;strokeWidth=2;" parent="1" vertex="1">
          <mxGeometry x="2341" y="2040" width="38" height="38" as="geometry" />
        </mxCell>
        <mxCell id="OUIGfnERuUNGmbplcGcp-112" value="&lt;b style=&quot;border-color: var(--border-color); font-size: 17px;&quot;&gt;&lt;font color=&quot;#ff0000&quot;&gt;1&lt;/font&gt;&lt;/b&gt;" style="rounded=0;whiteSpace=wrap;html=1;strokeWidth=2;" parent="1" vertex="1">
          <mxGeometry x="2379" y="2040" width="38" height="38" as="geometry" />
        </mxCell>
        <mxCell id="OUIGfnERuUNGmbplcGcp-113" value="&lt;span style=&quot;font-size: 17px;&quot;&gt;&lt;b&gt;0&lt;/b&gt;&lt;/span&gt;" style="rounded=0;whiteSpace=wrap;html=1;strokeWidth=2;" parent="1" vertex="1">
          <mxGeometry x="2417" y="2040" width="38" height="38" as="geometry" />
        </mxCell>
        <mxCell id="OUIGfnERuUNGmbplcGcp-114" value="&lt;b style=&quot;border-color: var(--border-color); font-size: 17px;&quot;&gt;&lt;font color=&quot;#4d9900&quot;&gt;0&lt;/font&gt;&lt;/b&gt;" style="rounded=0;whiteSpace=wrap;html=1;strokeWidth=2;" parent="1" vertex="1">
          <mxGeometry x="2455" y="2040" width="38" height="38" as="geometry" />
        </mxCell>
        <mxCell id="OUIGfnERuUNGmbplcGcp-115" value="&lt;b style=&quot;border-color: var(--border-color); font-size: 17px;&quot;&gt;&lt;font color=&quot;#ff0000&quot;&gt;1&lt;/font&gt;&lt;/b&gt;" style="rounded=0;whiteSpace=wrap;html=1;strokeWidth=2;" parent="1" vertex="1">
          <mxGeometry x="2493" y="2040" width="38" height="38" as="geometry" />
        </mxCell>
        <mxCell id="OUIGfnERuUNGmbplcGcp-116" value="&lt;b style=&quot;border-color: var(--border-color); font-size: 17px;&quot;&gt;0&lt;/b&gt;" style="rounded=0;whiteSpace=wrap;html=1;strokeWidth=2;" parent="1" vertex="1">
          <mxGeometry x="2531" y="2040" width="38" height="38" as="geometry" />
        </mxCell>
        <mxCell id="OUIGfnERuUNGmbplcGcp-117" value="&lt;font style=&quot;font-size: 17px;&quot;&gt;&lt;b&gt;0&lt;/b&gt;&lt;/font&gt;" style="rounded=0;whiteSpace=wrap;html=1;strokeWidth=2;" parent="1" vertex="1">
          <mxGeometry x="2569" y="2040" width="38" height="38" as="geometry" />
        </mxCell>
        <mxCell id="OUIGfnERuUNGmbplcGcp-118" value="&lt;font size=&quot;1&quot; color=&quot;#0000ff&quot; style=&quot;&quot;&gt;&lt;b style=&quot;font-size: 20px;&quot;&gt;0&lt;/b&gt;&lt;/font&gt;" style="text;html=1;align=center;verticalAlign=middle;resizable=0;points=[];autosize=1;strokeColor=none;fillColor=none;fontFamily=Times New Roman;" parent="1" vertex="1">
          <mxGeometry x="2574.5" y="2004" width="28" height="36" as="geometry" />
        </mxCell>
        <mxCell id="OUIGfnERuUNGmbplcGcp-119" value="&lt;font size=&quot;1&quot; color=&quot;#0000ff&quot; style=&quot;&quot;&gt;&lt;b style=&quot;font-size: 20px;&quot;&gt;1&lt;/b&gt;&lt;/font&gt;" style="text;html=1;align=center;verticalAlign=middle;resizable=0;points=[];autosize=1;strokeColor=none;fillColor=none;fontFamily=Times New Roman;" parent="1" vertex="1">
          <mxGeometry x="2536.5" y="2004" width="28" height="36" as="geometry" />
        </mxCell>
        <mxCell id="OUIGfnERuUNGmbplcGcp-120" value="&lt;font size=&quot;1&quot; color=&quot;#0000ff&quot; style=&quot;&quot;&gt;&lt;b style=&quot;font-size: 20px;&quot;&gt;3&lt;/b&gt;&lt;/font&gt;" style="text;html=1;align=center;verticalAlign=middle;resizable=0;points=[];autosize=1;strokeColor=none;fillColor=none;fontFamily=Times New Roman;" parent="1" vertex="1">
          <mxGeometry x="2460.5" y="2004" width="28" height="36" as="geometry" />
        </mxCell>
        <mxCell id="OUIGfnERuUNGmbplcGcp-121" value="&lt;font size=&quot;1&quot; color=&quot;#0000ff&quot; style=&quot;&quot;&gt;&lt;b style=&quot;font-size: 20px;&quot;&gt;2&lt;/b&gt;&lt;/font&gt;" style="text;html=1;align=center;verticalAlign=middle;resizable=0;points=[];autosize=1;strokeColor=none;fillColor=none;fontFamily=Times New Roman;" parent="1" vertex="1">
          <mxGeometry x="2498.5" y="2004" width="28" height="36" as="geometry" />
        </mxCell>
        <mxCell id="OUIGfnERuUNGmbplcGcp-122" value="&lt;font size=&quot;1&quot; color=&quot;#0000ff&quot; style=&quot;&quot;&gt;&lt;b style=&quot;font-size: 20px;&quot;&gt;4&lt;/b&gt;&lt;/font&gt;" style="text;html=1;align=center;verticalAlign=middle;resizable=0;points=[];autosize=1;strokeColor=none;fillColor=none;fontFamily=Times New Roman;" parent="1" vertex="1">
          <mxGeometry x="2422.5" y="2004" width="28" height="36" as="geometry" />
        </mxCell>
        <mxCell id="OUIGfnERuUNGmbplcGcp-123" value="&lt;font size=&quot;1&quot; color=&quot;#0000ff&quot; style=&quot;&quot;&gt;&lt;b style=&quot;font-size: 20px;&quot;&gt;5&lt;/b&gt;&lt;/font&gt;" style="text;html=1;align=center;verticalAlign=middle;resizable=0;points=[];autosize=1;strokeColor=none;fillColor=none;fontFamily=Times New Roman;" parent="1" vertex="1">
          <mxGeometry x="2384.5" y="2004" width="28" height="36" as="geometry" />
        </mxCell>
        <mxCell id="OUIGfnERuUNGmbplcGcp-124" value="&lt;font size=&quot;1&quot; color=&quot;#0000ff&quot; style=&quot;&quot;&gt;&lt;b style=&quot;font-size: 20px;&quot;&gt;6&lt;/b&gt;&lt;/font&gt;" style="text;html=1;align=center;verticalAlign=middle;resizable=0;points=[];autosize=1;strokeColor=none;fillColor=none;fontFamily=Times New Roman;" parent="1" vertex="1">
          <mxGeometry x="2346.5" y="2004" width="28" height="36" as="geometry" />
        </mxCell>
        <mxCell id="OUIGfnERuUNGmbplcGcp-125" value="&lt;font size=&quot;1&quot; color=&quot;#0000ff&quot; style=&quot;&quot;&gt;&lt;b style=&quot;font-size: 20px;&quot;&gt;7&lt;/b&gt;&lt;/font&gt;" style="text;html=1;align=center;verticalAlign=middle;resizable=0;points=[];autosize=1;strokeColor=none;fillColor=none;fontFamily=Times New Roman;" parent="1" vertex="1">
          <mxGeometry x="2308" y="2005" width="28" height="36" as="geometry" />
        </mxCell>
        <mxCell id="OUIGfnERuUNGmbplcGcp-126" value="&lt;font face=&quot;Times New Roman&quot;&gt;&lt;span style=&quot;font-size: 20px;&quot;&gt;&lt;b&gt;IRR&lt;/b&gt;&lt;/span&gt;&lt;/font&gt;" style="text;html=1;align=center;verticalAlign=middle;resizable=0;points=[];autosize=1;strokeColor=none;fillColor=none;" parent="1" vertex="1">
          <mxGeometry x="2248" y="2041" width="55" height="36" as="geometry" />
        </mxCell>
        <mxCell id="OUIGfnERuUNGmbplcGcp-127" value="&lt;b style=&quot;border-color: var(--border-color); font-size: 17px;&quot;&gt;0&lt;/b&gt;" style="rounded=0;whiteSpace=wrap;html=1;strokeWidth=2;" parent="1" vertex="1">
          <mxGeometry x="2087.5" y="2179" width="38" height="38" as="geometry" />
        </mxCell>
        <mxCell id="OUIGfnERuUNGmbplcGcp-128" value="&lt;b style=&quot;border-color: var(--border-color); font-size: 17px;&quot;&gt;&lt;font style=&quot;border-color: var(--border-color);&quot;&gt;0&lt;/font&gt;&lt;/b&gt;" style="rounded=0;whiteSpace=wrap;html=1;strokeWidth=2;" parent="1" vertex="1">
          <mxGeometry x="2125.5" y="2179" width="38" height="38" as="geometry" />
        </mxCell>
        <mxCell id="OUIGfnERuUNGmbplcGcp-129" value="&lt;b style=&quot;border-color: var(--border-color); font-size: 17px;&quot;&gt;0&lt;/b&gt;" style="rounded=0;whiteSpace=wrap;html=1;strokeWidth=2;" parent="1" vertex="1">
          <mxGeometry x="2163.5" y="2179" width="38" height="38" as="geometry" />
        </mxCell>
        <mxCell id="OUIGfnERuUNGmbplcGcp-130" value="&lt;span style=&quot;font-size: 17px;&quot;&gt;&lt;b&gt;0&lt;/b&gt;&lt;/span&gt;" style="rounded=0;whiteSpace=wrap;html=1;strokeWidth=2;" parent="1" vertex="1">
          <mxGeometry x="2201.5" y="2179" width="38" height="38" as="geometry" />
        </mxCell>
        <mxCell id="OUIGfnERuUNGmbplcGcp-131" value="&lt;b style=&quot;border-color: var(--border-color); font-size: 17px;&quot;&gt;0&lt;/b&gt;" style="rounded=0;whiteSpace=wrap;html=1;strokeWidth=2;" parent="1" vertex="1">
          <mxGeometry x="2239.5" y="2179" width="38" height="38" as="geometry" />
        </mxCell>
        <mxCell id="OUIGfnERuUNGmbplcGcp-132" value="&lt;b style=&quot;border-color: var(--border-color); font-size: 17px;&quot;&gt;&lt;font color=&quot;#ff0000&quot;&gt;1&lt;/font&gt;&lt;/b&gt;" style="rounded=0;whiteSpace=wrap;html=1;strokeWidth=2;" parent="1" vertex="1">
          <mxGeometry x="2277.5" y="2179" width="38" height="38" as="geometry" />
        </mxCell>
        <mxCell id="OUIGfnERuUNGmbplcGcp-133" value="&lt;b style=&quot;border-color: var(--border-color); font-size: 17px;&quot;&gt;0&lt;/b&gt;" style="rounded=0;whiteSpace=wrap;html=1;strokeWidth=2;" parent="1" vertex="1">
          <mxGeometry x="2315.5" y="2179" width="38" height="38" as="geometry" />
        </mxCell>
        <mxCell id="OUIGfnERuUNGmbplcGcp-134" value="&lt;font style=&quot;font-size: 17px;&quot;&gt;&lt;b&gt;0&lt;/b&gt;&lt;/font&gt;" style="rounded=0;whiteSpace=wrap;html=1;strokeWidth=2;" parent="1" vertex="1">
          <mxGeometry x="2353.5" y="2179" width="38" height="38" as="geometry" />
        </mxCell>
        <mxCell id="OUIGfnERuUNGmbplcGcp-135" value="&lt;font size=&quot;1&quot; color=&quot;#0000ff&quot; style=&quot;&quot;&gt;&lt;b style=&quot;font-size: 20px;&quot;&gt;0&lt;/b&gt;&lt;/font&gt;" style="text;html=1;align=center;verticalAlign=middle;resizable=0;points=[];autosize=1;strokeColor=none;fillColor=none;fontFamily=Times New Roman;" parent="1" vertex="1">
          <mxGeometry x="2359" y="2143" width="28" height="36" as="geometry" />
        </mxCell>
        <mxCell id="OUIGfnERuUNGmbplcGcp-136" value="&lt;font size=&quot;1&quot; color=&quot;#0000ff&quot; style=&quot;&quot;&gt;&lt;b style=&quot;font-size: 20px;&quot;&gt;1&lt;/b&gt;&lt;/font&gt;" style="text;html=1;align=center;verticalAlign=middle;resizable=0;points=[];autosize=1;strokeColor=none;fillColor=none;fontFamily=Times New Roman;" parent="1" vertex="1">
          <mxGeometry x="2321" y="2143" width="28" height="36" as="geometry" />
        </mxCell>
        <mxCell id="OUIGfnERuUNGmbplcGcp-137" value="&lt;font size=&quot;1&quot; color=&quot;#0000ff&quot; style=&quot;&quot;&gt;&lt;b style=&quot;font-size: 20px;&quot;&gt;3&lt;/b&gt;&lt;/font&gt;" style="text;html=1;align=center;verticalAlign=middle;resizable=0;points=[];autosize=1;strokeColor=none;fillColor=none;fontFamily=Times New Roman;" parent="1" vertex="1">
          <mxGeometry x="2245" y="2143" width="28" height="36" as="geometry" />
        </mxCell>
        <mxCell id="OUIGfnERuUNGmbplcGcp-138" value="&lt;font size=&quot;1&quot; color=&quot;#0000ff&quot; style=&quot;&quot;&gt;&lt;b style=&quot;font-size: 20px;&quot;&gt;2&lt;/b&gt;&lt;/font&gt;" style="text;html=1;align=center;verticalAlign=middle;resizable=0;points=[];autosize=1;strokeColor=none;fillColor=none;fontFamily=Times New Roman;" parent="1" vertex="1">
          <mxGeometry x="2283" y="2143" width="28" height="36" as="geometry" />
        </mxCell>
        <mxCell id="OUIGfnERuUNGmbplcGcp-139" value="&lt;font size=&quot;1&quot; color=&quot;#0000ff&quot; style=&quot;&quot;&gt;&lt;b style=&quot;font-size: 20px;&quot;&gt;4&lt;/b&gt;&lt;/font&gt;" style="text;html=1;align=center;verticalAlign=middle;resizable=0;points=[];autosize=1;strokeColor=none;fillColor=none;fontFamily=Times New Roman;" parent="1" vertex="1">
          <mxGeometry x="2207" y="2143" width="28" height="36" as="geometry" />
        </mxCell>
        <mxCell id="OUIGfnERuUNGmbplcGcp-140" value="&lt;font size=&quot;1&quot; color=&quot;#0000ff&quot; style=&quot;&quot;&gt;&lt;b style=&quot;font-size: 20px;&quot;&gt;5&lt;/b&gt;&lt;/font&gt;" style="text;html=1;align=center;verticalAlign=middle;resizable=0;points=[];autosize=1;strokeColor=none;fillColor=none;fontFamily=Times New Roman;" parent="1" vertex="1">
          <mxGeometry x="2169" y="2143" width="28" height="36" as="geometry" />
        </mxCell>
        <mxCell id="OUIGfnERuUNGmbplcGcp-141" value="&lt;font size=&quot;1&quot; color=&quot;#0000ff&quot; style=&quot;&quot;&gt;&lt;b style=&quot;font-size: 20px;&quot;&gt;6&lt;/b&gt;&lt;/font&gt;" style="text;html=1;align=center;verticalAlign=middle;resizable=0;points=[];autosize=1;strokeColor=none;fillColor=none;fontFamily=Times New Roman;" parent="1" vertex="1">
          <mxGeometry x="2131" y="2143" width="28" height="36" as="geometry" />
        </mxCell>
        <mxCell id="OUIGfnERuUNGmbplcGcp-142" value="&lt;font size=&quot;1&quot; color=&quot;#0000ff&quot; style=&quot;&quot;&gt;&lt;b style=&quot;font-size: 20px;&quot;&gt;7&lt;/b&gt;&lt;/font&gt;" style="text;html=1;align=center;verticalAlign=middle;resizable=0;points=[];autosize=1;strokeColor=none;fillColor=none;fontFamily=Times New Roman;" parent="1" vertex="1">
          <mxGeometry x="2093" y="2143" width="28" height="36" as="geometry" />
        </mxCell>
        <mxCell id="OUIGfnERuUNGmbplcGcp-143" value="&lt;span style=&quot;font-size: 20px;&quot;&gt;&lt;b&gt;&lt;font face=&quot;Times New Roman&quot;&gt;IMR&lt;/font&gt;&lt;/b&gt;&lt;/span&gt;" style="text;html=1;align=center;verticalAlign=middle;resizable=0;points=[];autosize=1;strokeColor=none;fillColor=none;" parent="1" vertex="1">
          <mxGeometry x="2028.5" y="2180" width="59" height="37" as="geometry" />
        </mxCell>
        <mxCell id="OUIGfnERuUNGmbplcGcp-144" value="&lt;font color=&quot;#ff0000&quot; style=&quot;font-size: 18px;&quot;&gt;&lt;b style=&quot;&quot;&gt;IR3&lt;/b&gt;&lt;/font&gt;" style="ellipse;shape=cloud;whiteSpace=wrap;html=1;fillColor=#ffff88;strokeColor=#36393d;" parent="1" vertex="1">
          <mxGeometry x="2185.5" y="1270" width="65.5" height="48" as="geometry" />
        </mxCell>
        <mxCell id="OUIGfnERuUNGmbplcGcp-145" style="edgeStyle=orthogonalEdgeStyle;rounded=0;orthogonalLoop=1;jettySize=auto;html=1;entryX=0;entryY=0.43;entryDx=0;entryDy=0;entryPerimeter=0;curved=1;strokeWidth=2;strokeColor=#FF0000;" parent="1" target="OUIGfnERuUNGmbplcGcp-146" edge="1">
          <mxGeometry relative="1" as="geometry">
            <mxPoint x="2299.5" y="1278" as="sourcePoint" />
          </mxGeometry>
        </mxCell>
        <mxCell id="OUIGfnERuUNGmbplcGcp-146" value="&lt;b&gt;&lt;font face=&quot;Times New Roman&quot; style=&quot;font-size: 17px;&quot;&gt;PUSHr&lt;/font&gt;&lt;/b&gt;" style="text;html=1;align=center;verticalAlign=middle;resizable=0;points=[];autosize=1;strokeColor=none;fillColor=none;fontColor=#000000;" parent="1" vertex="1">
          <mxGeometry x="2376.5" y="1193.5" width="71" height="32" as="geometry" />
        </mxCell>
        <mxCell id="OUIGfnERuUNGmbplcGcp-147" value="&lt;b&gt;&lt;font face=&quot;Times New Roman&quot; style=&quot;font-size: 17px;&quot;&gt;（STI）&lt;/font&gt;&lt;/b&gt;" style="text;html=1;align=center;verticalAlign=middle;resizable=0;points=[];autosize=1;strokeColor=none;fillColor=none;fontColor=#000000;" parent="1" vertex="1">
          <mxGeometry x="2372.5" y="1230" width="79" height="32" as="geometry" />
        </mxCell>
        <mxCell id="OUIGfnERuUNGmbplcGcp-148" value="&lt;b&gt;&lt;font face=&quot;Times New Roman&quot; style=&quot;font-size: 24px;&quot;&gt;......&lt;/font&gt;&lt;/b&gt;" style="text;html=1;align=center;verticalAlign=middle;resizable=0;points=[];autosize=1;strokeColor=none;fillColor=none;fontColor=#000000;" parent="1" vertex="1">
          <mxGeometry x="2384.5" y="1257" width="54" height="41" as="geometry" />
        </mxCell>
        <mxCell id="OUIGfnERuUNGmbplcGcp-149" value="&lt;b&gt;&lt;font face=&quot;Times New Roman&quot; style=&quot;font-size: 24px;&quot;&gt;......&lt;/font&gt;&lt;/b&gt;" style="text;html=1;align=center;verticalAlign=middle;resizable=0;points=[];autosize=1;strokeColor=none;fillColor=none;fontColor=#000000;" parent="1" vertex="1">
          <mxGeometry x="2384.5" y="1295" width="54" height="41" as="geometry" />
        </mxCell>
        <mxCell id="OUIGfnERuUNGmbplcGcp-150" value="&lt;b&gt;&lt;font face=&quot;Times New Roman&quot; style=&quot;font-size: 17px;&quot;&gt;（CLI）&lt;/font&gt;&lt;/b&gt;" style="text;html=1;align=center;verticalAlign=middle;resizable=0;points=[];autosize=1;strokeColor=none;fillColor=none;fontColor=#000000;" parent="1" vertex="1">
          <mxGeometry x="2371" y="1340.5" width="82" height="32" as="geometry" />
        </mxCell>
        <mxCell id="OUIGfnERuUNGmbplcGcp-151" value="&lt;b style=&quot;border-color: var(--border-color); font-family: &amp;quot;Times New Roman&amp;quot;; font-size: 17px;&quot;&gt;EOI&lt;/b&gt;" style="text;html=1;align=center;verticalAlign=middle;resizable=0;points=[];autosize=1;strokeColor=none;fillColor=none;fontColor=#000000;" parent="1" vertex="1">
          <mxGeometry x="2386.5" y="1372.5" width="49" height="32" as="geometry" />
        </mxCell>
        <mxCell id="OUIGfnERuUNGmbplcGcp-152" value="&lt;div style=&quot;text-align: center;&quot;&gt;&lt;span style=&quot;background-color: initial; font-size: 17px;&quot;&gt;&lt;font face=&quot;Times New Roman&quot;&gt;&lt;b&gt;POPr&lt;/b&gt;&lt;/font&gt;&lt;/span&gt;&lt;/div&gt;" style="text;whiteSpace=wrap;html=1;fontColor=#000000;" parent="1" vertex="1">
          <mxGeometry x="2391.5" y="1404.5000610351562" width="59" height="42" as="geometry" />
        </mxCell>
        <mxCell id="OUIGfnERuUNGmbplcGcp-153" value="&lt;div style=&quot;text-align: center;&quot;&gt;&lt;span style=&quot;background-color: initial; font-size: 17px;&quot;&gt;&lt;font face=&quot;Times New Roman&quot;&gt;&lt;b&gt;IRET&lt;/b&gt;&lt;/font&gt;&lt;/span&gt;&lt;/div&gt;" style="text;whiteSpace=wrap;html=1;fontColor=#000000;" parent="1" vertex="1">
          <mxGeometry x="2391.5" y="1440.0000610351562" width="59" height="42" as="geometry" />
        </mxCell>
        <mxCell id="OUIGfnERuUNGmbplcGcp-154" value="&lt;font color=&quot;#ff0000&quot; style=&quot;font-size: 18px;&quot;&gt;&lt;b&gt;IR3&lt;/b&gt;&lt;/font&gt;" style="text;html=1;align=center;verticalAlign=middle;resizable=0;points=[];autosize=1;strokeColor=none;fillColor=none;" parent="1" vertex="1">
          <mxGeometry x="2340.5" y="1171" width="46" height="34" as="geometry" />
        </mxCell>
        <mxCell id="OUIGfnERuUNGmbplcGcp-157" style="rounded=0;orthogonalLoop=1;jettySize=auto;html=1;" parent="1" source="OUIGfnERuUNGmbplcGcp-156" edge="1">
          <mxGeometry relative="1" as="geometry">
            <mxPoint x="1948" y="2844" as="targetPoint" />
          </mxGeometry>
        </mxCell>
        <mxCell id="OUIGfnERuUNGmbplcGcp-159" value="&lt;b&gt;是&lt;/b&gt;" style="edgeLabel;html=1;align=center;verticalAlign=middle;resizable=0;points=[];" parent="OUIGfnERuUNGmbplcGcp-157" vertex="1" connectable="0">
          <mxGeometry x="-0.3312" relative="1" as="geometry">
            <mxPoint x="-4" y="5" as="offset" />
          </mxGeometry>
        </mxCell>
        <mxCell id="OUIGfnERuUNGmbplcGcp-160" style="rounded=0;orthogonalLoop=1;jettySize=auto;html=1;" parent="1" source="OUIGfnERuUNGmbplcGcp-156" edge="1">
          <mxGeometry relative="1" as="geometry">
            <mxPoint x="2083" y="2833" as="targetPoint" />
          </mxGeometry>
        </mxCell>
        <mxCell id="OUIGfnERuUNGmbplcGcp-161" value="&lt;b&gt;否&lt;/b&gt;" style="edgeLabel;html=1;align=center;verticalAlign=middle;resizable=0;points=[];" parent="OUIGfnERuUNGmbplcGcp-160" vertex="1" connectable="0">
          <mxGeometry x="0.2732" y="1" relative="1" as="geometry">
            <mxPoint x="-8" y="-6" as="offset" />
          </mxGeometry>
        </mxCell>
        <mxCell id="OUIGfnERuUNGmbplcGcp-156" value="&lt;font size=&quot;1&quot; style=&quot;&quot;&gt;&lt;b style=&quot;font-size: 12px;&quot;&gt;中断允许嵌套吗？&lt;/b&gt;&lt;/font&gt;" style="text;html=1;align=center;verticalAlign=middle;resizable=0;points=[];autosize=1;strokeColor=none;fillColor=none;" parent="1" vertex="1">
          <mxGeometry x="1945" y="2774" width="114" height="26" as="geometry" />
        </mxCell>
        <mxCell id="OUIGfnERuUNGmbplcGcp-163" style="rounded=0;orthogonalLoop=1;jettySize=auto;html=1;" parent="1" source="OUIGfnERuUNGmbplcGcp-158" edge="1">
          <mxGeometry relative="1" as="geometry">
            <mxPoint x="1862" y="2908" as="targetPoint" />
          </mxGeometry>
        </mxCell>
        <mxCell id="OUIGfnERuUNGmbplcGcp-164" value="&lt;b&gt;是&lt;/b&gt;" style="edgeLabel;html=1;align=center;verticalAlign=middle;resizable=0;points=[];" parent="OUIGfnERuUNGmbplcGcp-163" vertex="1" connectable="0">
          <mxGeometry x="-0.5193" y="-1" relative="1" as="geometry">
            <mxPoint x="-6" y="8" as="offset" />
          </mxGeometry>
        </mxCell>
        <mxCell id="OUIGfnERuUNGmbplcGcp-158" value="&lt;b&gt;&lt;font color=&quot;#00cc00&quot; style=&quot;font-size: 12px;&quot;&gt;中断嵌套需要优先级吗？&lt;/font&gt;&lt;/b&gt;" style="text;html=1;align=center;verticalAlign=middle;resizable=0;points=[];autosize=1;strokeColor=none;fillColor=none;" parent="1" vertex="1">
          <mxGeometry x="1841" y="2844" width="150" height="26" as="geometry" />
        </mxCell>
        <mxCell id="OUIGfnERuUNGmbplcGcp-162" value="&lt;b&gt;&lt;font color=&quot;#00cc00&quot; style=&quot;font-size: 11px;&quot;&gt;中断结束方式：自动 EOI&lt;/font&gt;&lt;/b&gt;" style="text;html=1;align=center;verticalAlign=middle;resizable=0;points=[];autosize=1;strokeColor=none;fillColor=none;" parent="1" vertex="1">
          <mxGeometry x="2034.5" y="2836" width="139" height="27" as="geometry" />
        </mxCell>
        <mxCell id="OUIGfnERuUNGmbplcGcp-165" value="&lt;b&gt;&lt;font style=&quot;font-size: 12px;&quot;&gt;一般屏蔽方式&lt;/font&gt;&lt;/b&gt;" style="text;html=1;align=center;verticalAlign=middle;resizable=0;points=[];autosize=1;strokeColor=none;fillColor=none;" parent="1" vertex="1">
          <mxGeometry x="1823" y="2910" width="90" height="26" as="geometry" />
        </mxCell>
      </root>
    </mxGraphModel>
  </diagram>
</mxfile>
